<?xml version="1.0" encoding="UTF-8"?><svg id="Capa_2" xmlns="http://www.w3.org/2000/svg" xmlns:xlink="http://www.w3.org/1999/xlink" viewBox="0 0 427.15 216.93"><defs><style>.cls-1{fill:url(#Degradado_sin_nombre_5);}.cls-1,.cls-2{fill-rule:evenodd;}</style><linearGradient id="Degradado_sin_nombre_5" x1="6.96" y1="14.85" x2="525.45" y2="220.29" gradientUnits="userSpaceOnUse"><stop offset="0" stop-color="#ec9522"/><stop offset="1" stop-color="#f16122"/></linearGradient></defs><g id="Capa_1-2"><path d="m1.83,121.72h20.63c1.13,0,1.74.44,1.83,1.32h-.43v.18h.67v78.85l-.24.23.24.18v2.59l-.24.68.24,1.05v7.36c0,1.6-.84,2.41-2.51,2.41H2.07c-1.38,0-2.07-.59-2.07-1.77v-45.97l.24-1.95-.24-.64.24.23.67-.23v-.23l-.67-.23-.24.23v-35.2h.48v-.23h-.48v-1.95l.24-.23-.24-.18v-3.91l.24-.23-.24-.18v-.45h.68c0-.27-.22-.41-.68-.41v-.23c.39-.72,1-1.09,1.83-1.09Zm-1.59,26.57v.23l.24.23h.43v-.23l-.67-.23Zm0,15.76c.16.48.47.77.92.86v-.23l-.67-.64h-.24Zm.43,1.09v.45h.72v-.23l-.72-.23Zm0,25.26v.23l.92.46h.24v-.46l-.92-.23h-.24Zm.48-57.64v.18l.67.45v-.23l-.67-.41Zm0,73.86v.41h.67v-.41h-.67Zm.92-41.47v.45h.92v-.23l-.92-.23Zm.43,41.47v.64h.48v-.64h-.48Zm.92-42.79l-.68-.18v.41c.68.03,1.37.32,2.07.86v-.23l-.48-1.27-.92.41Zm1.64,42.34l-.24,1.32.44.41,2.07-.23c-.45-.7-1.06-1.05-1.83-1.05v-.45h-.43Zm.19-18.35l-.19.68v.18h.19l.24-.64v-.23h-.24Zm.24-24.39v.41l.24.45v.23c.35,0,.66.29.91.86h-.24l-.24-.23-.92.23v.41h.24l1.4-.41v.41h.67v-.18h-.48v-.23l.24-.68c-.68-.27-.98-.56-.92-.86h.24v-.41h-.24l-.24.23-.19-.23h-.48Zm-.24,23.76v.45h.48l.43-.45h-.92Zm.72-60.5v.68l.43-.45-.24-.23h-.19Zm.67,79.49v.45c.61,0,.92.35.92,1.05h.43c0-.67-.37-1.17-1.11-1.5h-.24Zm.24-12.95v.23l.67.64h.24c-.22-.57-.47-.86-.72-.86h-.19Zm.67-28.71v.41l.24-.23.19.23h.48l-.48-.41h-.43Zm.68,1.73l-.24.23v.18h.72l-.48-.41Zm.92-1.54v.23l1.16.23h.24v-.23c-.45,0-.67-.13-.67-.41l-.72.18Zm1.4,33.7v.46h-.48l-.19-.23h-.24l.24.64h.67l.44-.41v-.46h-.44Zm-.48,1.32v.18l.73.23v-.23l-.24-.18h-.48Zm1.64-1.09v.23l.19.64h.24c0-.43.16-.64.48-.64v-.23h-.92Zm0,3.22h.44v-.41l1.16.18.24-.18v-.46l-1.16-.23c-.36,0-.58.36-.68,1.09Zm1.59-2.14l-.48.86h.72l.2-.86h-.44Zm-.48,7.09v.45h.72v-.45l-.24.22h-.24l-.24-.22Zm.48-42.52v.23c0,.27.53.48,1.59.63l-1.59-.86Zm.67,45.33v.86l.67.45h.24c-.45-.49-.67-.93-.67-1.32h-.24Zm.24-3v.41c.45,0,.67.15.67.46h.67c-.29-.58-.74-.86-1.35-.86Zm.43-81.85v.86l.72.41v-.23l-.48-1.04h-.24Zm0,70.41v.45l.72.18-.24-.64h-.48Zm.72-28.3v.86l.91.64-.72-1.5h-.19Zm.43-2.18v.91h.24v-.91h-.24Zm.48-.18v.41h.68l-.48-.41h-.19Zm.68.86l.24.23h.19l.24-.91-.67.68Zm0,41.43c0,.3.47.53,1.4.68l.19-.23v-.64l-1.59.18Zm2.99-43.61c0,.58-.53.86-1.59.86v.22h.43v.23l.24-.23h.43l.72.41.19-.18-.19-.23v-.45h.43v-.18l-.43-.45h-.24Zm.43,42.74l.24.23h.24l.43-.64v-.23h-.19l-.72.64Zm2.75-.86v.23l.48.45v-.23l-.48-.45Z"/><path d="m36.87,121.72h2.27v.64h-.43v.23h.24l.67-.23.24.23v-.23l-.24-.64h.68l.24.23.24-.23h2.75l-.24.23v.18h.43v-.41h2.07l.24.23.24-.23h2.27l.92.23,1.59-.23h6.89v.41h.19v-.41h6.22c.97,0,1.72,2.3,2.27,6.9l1.83,8.41h-.24c.48.81.72,1.75.72,2.81h-.92l.19-1.09h-.19c-.77.15-1.16.51-1.16,1.09l.24.23h.19v-.45l1.16.86-.24.23v.18l.48.46h.24l.19-.23h.24l4.15,20.94c.26,0,.79-2.3,1.59-6.91l.19-.23.72.64c-.16-.57-.46-.86-.92-.86l1.11-6.68.24.23h.24v-.23l.24.23h.43v-.64l-.24-.68h.24l.48-.41c-.38,0-.63-.29-.72-.86h-.43c.71-4.45,1.24-6.68,1.59-6.68l-.24-.23v-1.09c.39,0,.77-.42,1.16-1.27h-.67l.24-.23-.24-.23v-.64l.43-.41-.19-.23v-.64h.43v-.23l.24.23h.24l1.35-.45v-.41l-.24-.23v-.23l.24-.23-.24-.18h-.19v.86l-.24-.23h-.24l-.24.23c0-.63-.22-1.07-.67-1.32.38-3.09.77-4.89,1.15-5.41l-.24-.18.48-1.95h.19v.64l-.19.23h.19c.26-.58.5-.87.72-.87h.19l-.19.23v.41c.45,0,.67.21.67.64h-.48v.23c.16.42.63.64,1.4.64.29,0,.43-.21.43-.64l1.16.64h.24l-.91,1.32,1.16-.22,1.11.45v-.68c-.45,0-.9-.29-1.35-.86l.24-.64,1.59.23v.41h-.67c0,.3.61.45,1.83.45v.23l-1.4.18v.45c1.06,0,1.6.29,1.6.86h.24l.48-.46,2.03.46.72-.23,1.35,1.09v-1.32c.32,0,.48-.21.48-.63h.67l-.24-.23v-.18c-.45,0-.68.29-.68.86h-.48v-.23l.24-.22v-.23c-.61,0-.92-.14-.92-.41l-.24.23h-.67l.48-1.09.91.64h.43v-.41l.24.18h.24l.19-.18c0,.57.24.92.73,1.04v.86l2.7-4.32h-.43v-.18c0-.3.31-.46.91-.46v-.23l-1.15-.18c-.74.18-1.11.39-1.11.64h.67l-.24.63-1.35,1.32v-.68l-.48.46.48.41v.23h-.24l-1.59-.63v-.23c.74,0,1.11-.13,1.11-.41h-.43v-.46c.77,0,1.16-.14,1.16-.41h-.92c0-.37.3-.59.92-.68v-.64h-.92l.19.23-.19.64h-.48c-.29,0-.43-.29-.43-.86l-1.16-.41-.24.18v.23l.67.23c-.48.58-1.01.86-1.59.86,0,.48-.69,1.14-2.07,1.95l-1.83-.68.24-.18v-.46l-.24.23h-.43l-.24-.86h.48v-.23l.19.23h.24l.24-.23h.24l.67.63h.24l.43-.41v-.23h-.43l-.24.23h-.24c-.06-.3-.45-.59-1.16-.86l-.19.23v.18l-1.16-.18.24-.23v-.23h-.24l-.91.86h-.24l.67-.86-.19-.23h-.24l-.48.45v1.09l.24,1.04.67-.41c.26.58.8.87,1.64.87v.23l-.48.41-.24-.23v-.18l-.19.18h-.92c-.77-.21-1.16-.56-1.16-1.04h-.48v.64h-.19l-.48-1.73h.24l.43.41-.19.23h.19l.72-.23v-1.73l1.11-.18.72.18v-.41h1.35v.41h.48v-.41h2.51l.24.23.19-.23h1.83l.92.23.91-.23h1.16l-.24.23v.18h.48l.92-.41.92.41v-.18l-.24-.23h.43l.24.23,1.16-.23h5.5v.41h.43l-.19-.18v-.23h.67v.23l1.59-.23h4.15c.8,0,1.41.36,1.83,1.09v.87l-.24.63.24,1.09v.18l.19,4.13-.19.18v.23l.19.86v.86c-.26,1.3-.79,1.95-1.59,1.95v.63c.77,0,1.16-.14,1.16-.41l-.24-.68h.48v1.09l.19,1.09-.19.23h-.24l-.67-.23v.23c0,.27.31.41.92.41v.87l-.92.63c-1.99-.6-2.99-1.11-2.99-1.5l.24-.23h.67c0,.45.14.68.43.68h.24l.48-1.54-.24-.64.24-.22h-.24v.22c-.61-.21-.92-.42-.92-.63l.24-.86h-.91v.64l-1.16-.23-.24.23c.45-.27.67-.56.67-.86l-.19-.23v-.18h.43v-.23l-.24-1.09c.61,0,.91-.14.91-.41l-.91-.22.24-.23v-.41l-.24-.23v-.23c-.13.58-.19,1.02-.19,1.32l-.24.64-3.42,2.82.67-.45h.24l-.24.23v.41h.43v.86h-.68v.23l.68.86v1.5h.24l.24-.18h.24v.41c-.48,0-.72.29-.72.86h-.68v-.64h-.24c0,.85-.22,1.27-.68,1.27v1.09h.24l.67-.41h.68v.18l-.68,1.72,1.16-.23h.24c-1.09.79-1.64,1.3-1.64,1.54h.48l.24-.22.19.22h.72c0-.45.15-.68.43-.68h.68v.23c-.26.57-.56.86-.92.86v.23l.92.23c0,.28-.23.41-.68.41l.24.23v.23l-.91.64h-.24v-.45l.24-.18v-.23h-.48c0,.58-.23.86-.68.86l-.24-.22v-.23l-.68.23v.45h.48l.19-.23h.24l.24.23v.18h-.24l.24.23v.45l-.24-.23h-.43v.23c.45,0,.67.14.67.41v.23h-.24c-.38,0-.61-.29-.67-.86l-.24.23h-1.16c-.74-.39-1.11-.91-1.11-1.54h-.48c0,.7-.31,1.42-.92,2.18h.67c.32,0,.48-.29.48-.86l.92.23-.24.18v.23h1.16l-.24.23v.23h.24c.29,0,.44-.23.44-.68h.48v.68h-.48v.18l.24.23v.23c-.61,0-.92.13-.92.41v.23c.45,0,.68.21.68.64h.24v-.41h1.16v.86h-.91v.23l.24.18v.23h-.48l.48.45h.19l-.19-.23v-.22l.43-.41c.45,0,.68.29.68.86h.24l.48-.45v-.23c-.61,0-.92-.21-.92-.63v-.23l.43-.41h.68v.41h.24l.68-.18.24.18.24-.86c.45.06.98.42,1.59,1.09l.48-1.28h.19l.24.18h.24c0-.57.3-.86.92-.86v-.18c-.45,0-.68-.23-.68-.68-.61.09-.92.32-.92.68h-.24l-.24-.68h.48v-.18l-.24-1.09-.91.41v-.64h-.24c-.26,0-.56.5-.91,1.5h-.44l-.24-.86h-.48v.45c.06.3.45.59,1.16.86l.24-.23v.23l-.24.23v.18l-.24-.18h-.44c-.32,0-.48.29-.48.86l-1.59-.23.48-.46.19.23.72-1.27h-.92v-.45l.68-.23.24.23c0-.64.84-1.14,2.51-1.5,0-.3-.23-.45-.67-.45v-.18h.67v-.86c-.77-.12-1.16-.35-1.16-.68v-.18l.48-.68-.24-.18v.41h-.48l-.19-.86.19-.23h.24l-.24-.18v-.45c1.09.12,1.64.56,1.64,1.32h.43l-.24,1.05-.19-.18h-.48c.19.48.66.91,1.4,1.27l.19-.23h1.4v-1.05l-.68-.23-.24.23h-.24c-.35,0-.74-.51-1.16-1.54l.72-.64v-.41l-.24-.23v-.23l.24-.18h-.24l-.24.18v-.18l.48-.45h.68c0,.64.3,1.13.92,1.5h.43l-.19-.18v-.23l.19-.23h.24l.24.23.24-.23.19.23-.44.64.44,1.09-.19.86.19.18v.23l-.19.23v.22l.19,1.27-.19.23h.19l-.19.23v.18l.19,1.09-.19.64.19.68h-.19c-.32,0-.48-.29-.48-.86h-.67v.41c.67,0,1.12.73,1.35,2.18v.63l-.19,1.27.19.23v.23l-.19.23.19,1.04v.45c0,1-.23,1.5-.67,1.5v.23l.67.86-.19,1.5h.19l-.19.23v.23l.19.18v.23l-.19.23.19,1.04v.23c0,.3-.23.46-.67.46.45.51.67,1.01.67,1.5v1.27l-.19.23.19.23v27.39l-.19,1.09h.19l-.19.18.19,1.55v3.86l-.19,1.91.19.23v.23l-.19.86h.19l-.19.18v.23l.19.23-.19,1.09v2.13l-.24-.23h-.24v.68l.24-.23h.24l.19.23v.41l-.19.64.19,1.09v1.5l-.44.45c.29.61.44,1.76.44,3.45v1.27c0,1.6-.84,2.41-2.51,2.41h-17.84c-1.38,0-2.07-.73-2.07-2.18v-35.11h-.24c-2.8,13.78-4.32,20.67-4.58,20.67h-.19l.19.86c-1.83,9.15-3.05,14.25-3.66,15.31l-1.35.46h-13.98c-1.61,0-2.59-2.09-2.94-6.27-.29,0-.53-.79-.73-2.36l.24-.23c-.45,0-.67-.36-.67-1.09l.24-.64c-.45,0-1-1.88-1.64-5.63l.24-.18c-.35,0-.74-1-1.16-3l.48-.46c-.77-1.15-1.16-2.07-1.16-2.77-1.67-5.94-3.04-11.48-4.1-16.63h-.24v3.45l-.24.23.24.64-.43,2.14.43,1.72h-.24l.24.23v.23l-.24.64.24,1.09-.24.23v.18l.24,1.09-.24,1.09.24,3.23v10.54c-.29,0-.43-.29-.43-.86h-.24v.86c.45,0,.67,1.15.67,3.45v6.68c0,1.6-.84,2.41-2.51,2.41h-15.14c-1.16,0-1.91-.37-2.27-1.09v-57.33c.45,0,.67-.15.67-.45h-.67v-.63h.43v-.45h-.43v-7.77h.43v-.63h-.43v-2.36l.24-.22-.24-.23v-1.27h.43v-.45h-.43v-17.44l.43-.64-.43-.46v-.64l.24.23h.43v-.86h-.43v.41h-.24v-1.27c.39-.72,1-1.09,1.83-1.09Zm-1.59,4.72v.68l.19.18h.48l-.48-.86h-.19Zm2.27,7.13l-.24,1.09-1.11-.23h-.92v.46h1.11l-.43.64.67.23-.24-.23v-.23l.24-.63.68.41h.24l-.24-.18v-.23l.24-.23h.67l.24.23h.24v-.45h-.48c0-.43-.14-.64-.43-.64h-.24Zm-1.35,16.62l.43.63-.24.23h.24l.24-.23v-.63h-.68Zm.68-9.49v.18h.43l.24-.18v-.23l-.67.23Zm.43-5.18v.41h.48l.24-.64-.72.23Zm0,17.04l.48.41h.24l.43-.41.24.23h.43l-.43-.86c-.93.12-1.4.33-1.4.64Zm.24-29.12v.63l.24-.23,1.59.23h.67l.48-.41-.48-.46-.91.46-.19-.68h-.48l-.92.45Zm0,19.17l.48,1.09h.19l.24-.23h.24v.45h.24v-.45l-.72-.18v-.22l.48-.64v-.23l-1.16.41Zm.24,3.68v.23l.43.41-.19.23h.19l.24-.23v-.18l-.68-.45Zm.24-1.27v.18l.67.23.24-.23.43.45h.67v-.22l-.91-.86-1.11.45Zm0,25.21v.63l.43-.41-.24-.23h-.19Zm.19-37.29v.64h.24l.24-.64h-.48Zm.48,17.67v.22l.43-.45v-.18l-.43.41Zm.67,6.27l-.43.86h.43v-.45l.24.22h.43v-.41l-.67-.23Zm-.24-17.67l.24.18c.61-.21.92-.43.92-.64v-.23h-.24l-.91.68Zm.24,8.58l-.24.68.24.18h.92l-.68-.63v-.23h-.24Zm0,3.68v.46h.67v-.23l-.67-.23Zm0,3.23v.45h.92l.48-.45v-.18h-.24l-1.16.18Zm.24-11.22v.23l.68.45.24-.23v-.23l-.92-.23Zm0,12.08v.23h.68l.48-.41h-.48l-.68.18Zm.43-9.67l-.19.18v.23h.68l-.48-.41Zm.48-21.81l-.48.64h.24l.67-.18-.43-.46Zm.68,27.62c0,.58-.14.87-.43.87l-.72-.23.24.86,1.59-1.09.24.23v-.41l-.92-.23Zm.68-29.34l-.19.23v.23h.43v.18h-1.16v.45h.48c0,.63.53,1.21,1.59,1.73l.24-.23h.24l.19.23h.24l.24-.64,1.59.18h.24v-.18h-.68l.19-.23v-.23l-.67-.23.24-.18v-.46h-.24l-.67.23-.24-.86-.67.41.24.23v.46c-.32,0-.48-.29-.48-.87l-.24.18h-.43c0-.42-.16-.64-.48-.64Zm-.92,28.03v.45h.72l-.48-.45h-.24Zm0,18.12l1.16.86.24-.23v-.41l-1.4-.23Zm.24-26.76l.24.23h.24l.19-.23h.24v.46h-.43v.23h.68l.24-.86-.72-.45-.68.63Zm.24,1.73v.23h.68l.24-.23v-.18h-.24l-.68.18Zm1.59-7.72l-.24-.23h-1.11v.41h.43l.24-.18.68.41.67-.41-.19-.68c-.32,0-.48.23-.48.68Zm-1.16,38.16l-.19.23v.18l.43.46.24-.23v-.23l-.48-.41Zm0-23.53v.23c.48,0,.72.21.72.64h.44l-.44-.86h-.72Zm.72-6.22v.86l.92-.23c1.13.36,1.74.79,1.83,1.27h.19v-.41l-.19-.22h.19l-.19-.86-.92.45v-.45l-1.83-.41Zm.19-1.73l.48.41.24-.64-.72.23Zm0,29.3h.24l.48-.41h-.24l-.48.41Zm3.47-14.44v.68l-2.55-.45-.43.45v.41h.67v-.41h.67l.72,1.05v.23l.19-.23h.24c0,.3.39.46,1.16.46v.41h.24l.67-.23-.48-.41-.19.23v-1.32h-.72v-.18h.48v-.23l-.48-.45h-.19Zm-2.99,2.59h.67v-.41h-.24l-.43.41Zm.92,9.08l.24.64h.19v-.64h-.43Zm.92-27.39l.24.18h.44v-.63h-.24l-.43.45Zm.43-18.99v.41l.72-.18v-.23h-.72Zm0,10.36v.64h.48v.23h-.48v.41l.48.45h.24v-.64h.19c0,.42.16.64.48.64l.24-.23.19.23v-.23c-.45-.15-.68-.58-.68-1.27v-.23h.24c0,.42.14.64.43.64h.24v-.64l-1.16-.23-.92.23Zm0,26.94v.46h.48c0,.42.14.63.43.63l.48-.45-1.4-.64Zm.48-28.03v.45h.67v-.68l-.67.23Zm.92-9.49l-.24.23v.41l.92-.41v-.23h-.67Zm-.24,31.07v.64h.24l.67-.23v-.41h-.92Zm.24,13.99v.86l.24-.18h.19l-.19-.68h-.24Zm1.35-19.17l-.19.63.19.23v.23l-.44,1.27v.22l1.59-.22h.24v.45c.29,0,.43-.36.43-1.09.61,0,.92-.21.92-.63l-.44-.46.24-.23v-.18l-.24-.23h-2.31Zm-.44,4.32l.24,1.09h.19l.48-1.09h-.92Zm.92-20.08v.68c.77,0,1.16.14,1.16.41l-.24.23h.43v-.45h.48v.45h.24v-.45l.19.23h.24v-.23l-.43-.41-.24.23h-.24c0-.45-.14-.68-.43-.68l-.24.23h-.24l-.68-.23Zm.68,8v.41h-.24l-.2-.18h-.24v.18l1.16.68.19-.23v-.23l-.67-.64Zm-.43-13.17v.68h.68v-.45l.24-.23-.24-.18-.68.18Zm.2,53.28l-.2.86h.2l.24-.23v-.64h-.24Zm.72-31.71l.67.23v.41h-.24l-.43-.41v-.23Zm0,22.44v.23l.43-.46v-.23l-.43.46Zm.19-46.15l.72.63.19-1.09-.92.46Zm0,3v.46l.72-.23v-.23h-.72Zm0,48.1l.48.45h.24l-.48-.45h-.24Zm.92-50.47c0,.58-.23,1.08-.68,1.5l.24.23v.22l-.24.23c1.38-.57,2.22-1.09,2.51-1.54h-.19v.23c-.93-.24-1.4-.53-1.4-.86h-.24Zm-.44,29.98l-.24.86.24.23h.24l.19-1.09h-.44Zm.44,2.18v.41l-.19-.23h-.24l-.24.23v.23l.24.23h.24l.67-.23v-.23l-.48-.41Zm.72-23.53v.64l.92-.41v-.23h-.92Zm.19,17.67l.48.45h.24v-.45h-.72Zm.48-19.81l-.24.64h.24l.24-.23v-.41h-.24Zm.24,2.77v.23l1.35.23c0-.3-.23-.45-.67-.45h-.68Zm.43-1.27l-.24.23v.18l.72-.18v-.23h-.48Zm-.24,22.21v.23l.72.18v-.18l-.24-.23h-.48Zm.48,3.86l-.48.46v.18h.48l.24-.18v-.46h-.24Zm-.24,9.72v.23l.67.18.24-.18v-.23h-.91Zm.48,8.18v.23l.68.45v-.23l-.68-.45Zm.19-32.34l.48.45v-.86l-.48.41Zm1.4,30.2v.64h.19l.48-.41-.24-.23h-.43Zm1.59-4.95v1.73h.68l-.68-1.73Zm.24-44.02v.23h.67l.24-.23v-.23h-.24l-.67.23Zm.43,55.42v.86h.24v-.86h-.24Zm2.75-46.56c0,.27-.23.41-.68.41l.24.23v.23l-.48,1.27h.67v-1.05h.24c.06.7.29,1.05.67,1.05v-.41h-.43l.43-.63h-.43l.24-1.09h-.48Zm.67-2.59v.23h.72c0,.21-.47.5-1.4.86v.18l.24.22v.23l-.48.41.92.23v-.41h.24l1.16.18.43-.41,1.16.23.24-.23.24.23-.24.18v.45l1.35-.45v-.64l-.19.23h-.72l-.67-1.09c0-.27-.45-.41-1.35-.41v-.45l-1.64.23Zm-.43,47.88h.67v-.46h-.24l-.43.46Zm.43-57.37l.48.41.24-.18v-.23h-.72Zm.48,76.72l.24.23h.19v-.64l-.43.41Zm1.16-41.33h.19l.48-.46v-.23l-.67.68Zm0,40.47l.19.86h.73l-.24-.18v-.23l.44-.64-.19-.64-.92.82Zm.67-3.41l-.48.86v.23c.48,0,.73-.29.73-.86v-.23h-.24Zm1.35.86l.24.23v.41h-.43c0-.42-.3-.64-.91-.64v.23l-.73.23v.41c.26.58.81.86,1.64.86h.19l.24-.23.24.23h.67v-.63l-.43-.64.43-.45v-.23l-1.15.23Zm-1.35-17.49l-.24.23v.23l.24.23h.24l.43-.68h-.24l-.19.23-.24-.23Zm.44-45.69l.24.86h-.43l-.24-.63.24-.23h.19Zm.24,69.86l.24.18v.45l-.68-.45.19.23v.46l-.44.63h.44l-.19.23v.18l.19.23h-.44v.46l.92.18c0-.42.39-.85,1.16-1.27l.19.23h.24v-.46l-1.35-.23.19-.64.24.23h.24v-.45l-1.16-.18Zm2.07-68.36v.23l.24.23v.23l-1.16-.23h-.48v.41h-.67l-.24-.18h-.19v.18l.19.23h.72l.68.45.24-.23h.19l.24.23v.18l-1.15.23v.45l.24.18v.23l-.24.23h.24l.92-.23.25.23h.24l.68-.23v.64l-.48.46h-.19l-.72-.46h-.68v.23l1.59.64.92-1.27c0-.24-.53-.45-1.59-.64v-.23c.93,0,1.4-.15,1.4-.45l-.72-.64v-.23l.24.23h.24v-.41l-.68-.68h-.24Zm-1.4,58.69v.18l.24.23v.23c-.9.09-1.35.3-1.35.64l.19.23h.24v-.45h.24l.67.23v-.23l.24-.86-.24-.18h-.24Zm-.92-11.45v.23h.92v-.23h-.92Zm.48-37.29v.18l.43.45h.24v-.22l-.43-.41h-.24Zm.24,57.1v.23l.68.23-.24.18v.45h.24l.43-.45v-.41l-.19-.23v-.23l.43-.41h-.67l-.68.64Zm.19-61.64v.23l.48.41h.24v-.41l-.72-.23Zm0,42.93l.24.18-.24.22v.64h.48v-1.5l-.48.46Zm.48-2.41l.24.68.19-.23h.24l-.24-.86-.43.41Zm.24-25.85l.19.64h.48v-.23l-.48-.41h-.19Zm.19,45.47l.48.41c0-.27.22-.41.67-.41v-.22h-.43l-.72.22Zm.72-64h.19v.41h-.68l.48-.41Zm-.24,18.3h.67v-.41h-.24l-.43.41Zm0,44.38v.46c.77,0,1.15.14,1.15.41v.45h.19v-.63l.92.63.24-.22v-.23l-.43-.86-.24.23h-.24l-.24-.23v-.18l-1.35.18Zm.43-13.76l.24.23h.24l.43-.45-.19-.18h-.24l-.48.41Zm0,15.49v.23l.72,1.32h.43c0-.72-.38-1.24-1.15-1.54Zm.24,1.54l-.24.18v.45h.72v-.23l-.48-.41Zm0-55.82l.68.18v-.64h-.19l-.48.45Zm.68,7.31l-.19.64.19-.18h.48l.24.18h.19v-.18l-.68-.45h-.24Zm.92,48.06v.23l.48.41v.23l-1.16.86v-.86h-.24l-.19.86.43.46v.41l-.43.46c.07.58.6,1.07,1.59,1.5,0,.42.3.64.92.64,0,.42.14.64.43.64h.48l.24-.18h.19l.24.18v-.18l-.24-.23h.48v-.63c-.39,0-.61-.37-.67-1.09.45,0,.67-.15.67-.45l-1.16-.41.24-.63-.24.18h-.43v-.41l-.24.23h-.48v-.46l.72-.23.67.23v-.41l-.48-.86h-.19v.64h-.24c0-.33-.47-.7-1.4-1.09Zm-.68-65.09l-.24.22v.23l.72-.23v-.22h-.48Zm.24,20.26l.44.45h.24l-.43-.45h-.24Zm.24,35.79v.45l.67-.86h-.24l-.43.41Zm.92,0l-.24.23v.23h.67l-.43-.45Zm.67,2.41l.24.18v.23l-.24.23v.23l.24.18c1.06-.12,1.59-.33,1.59-.64v-.23h-1.16l.24-.18v-.23h-.24l-.67.23Zm3.42,3.81l-.68.68-1.59-.23-.24.23v.18l1.16.45-.24.23v.41l.92.45h.24v-.45l.19.23h.24l-.24-.23v-.23l.24-.86.48.45v.64l-.72.86v.45l1.4-1.09h.68v.23l-.24.64h.48v-1.09c0-.27-.47-.56-1.4-.86v-.23l.24-.18-.92-.68Zm-1.59-33.79h.24c.77,0,1.22-.23,1.35-.68v-.18l-1.59.86Zm0,3.22v.23h.43c0,.43.16.64.48.64v-.23l-.68-.64h-.24Zm.24,6.27v.18l.44.45h.24v-.64h-.68Zm.92,33.16v.23h.44v-.64l-.44.41Zm3.18-51.06l.43.41h.24l-.43-.41h-.24Zm.43,10.99c0,.58-.14.86-.43.86v.41h.24l.68-.23v-1.05h-.48Zm-.43,29.75l.24.86h.68v-.23l-.68-.63h-.24Zm0,8.81l.67.23.48-.68-.24-.18c-.61.21-.92.42-.92.63Zm.67-12.27v.41h.92v-.64h-.24l-.68.23Zm1.59,11.18l.24.23-.43.41v.68h.92c.29,0,.51-.58.67-1.73h-.91l-.48.41Zm.24-48.47v.18c.45,0,.67.22.67.68h.48l.24-.23.67.23.68-.23c0-.3-.69-.45-2.08-.45l.24-.18v-.23l-.92.23Zm0,50.83v.23l.67-.64h-.19l-.48.41Zm.48-43.11v.46c.9-.33,1.35-.62,1.35-.86h-.92l-.43.41Zm0,33.66v.23h.67v.41h-.67v1.27c.61,0,.92.15.92.45h.67v-.45h-.48l.24-.64.24.23h.24v-.45h-.24l-.67.23v-.23l.19-1.5-.19-.18h-.24l-.67.63Zm.19,2.36l-.19.18v.23l.19.23h.24l.24-.23v-.23l-.24-.18h-.24Zm0-68.54h.48l.43,1.05-.92.23v-.64l.24-.23v-.23l-.24-.18Zm0,21.99v.23l.48.41.43-.41-.92-.23Zm.24-7.54v.64h.48l-.24-.64h-.24Zm0,8.63l.24.64h.43v-.23l-.43-.41h-.24Zm0,54.73v.23h.48v-.68l-.48.45Zm.24-59.28v.41h.68v-.18l-.68-.23Zm.43-12.08v.23l.48.41v-.64h-.48Zm6.65,4.32l1.83,1.27-.24-.18h-.2l.2.18v.23l-.2,1.95h.2c0,.42-.23.63-.68.63v.45l.24.18v.23l-.24.23h-.24l-1.11-.46h-.24v.23h.43v.45h-.19l-.48-.45-1.16.63c-.1-.7-.55-1.05-1.35-1.05h-.48v.41c.39,0,.63.29.72.86l-.24.23h-.24l-1.16-1.5h-.92v.18h.92l-.67.86c-.61-.12-.92-.47-.92-1.05h-.24v.18c0,.88.24,1.32.72,1.32l-.48,1.27h.48l-.24-.18v-.23c.61,0,.92-.21.92-.63h-.48v-.46h.92l-.19-.23v-.41h.19c.32,0,.48.29.48.86.45,0,.67.14.67.41,1.74-.27,2.81-.56,3.23-.86h.43v.45h.24l.67-.23c.26.57.56.87.92.87v.63l-.68-.41-.24.23v.18l.24.23-.24.22h.24l.24-.22.92.22h.19c.61-.09,1.22-.16,1.83-.22l.72.45h4.53-.44l.44-.68-.19-.18h.19l.24.18.67-.18v-.23h-.43v.23l-.67-.23v-.45h1.11c0-.27-.3-.41-.91-.41v-.64h.24l.24.18h.24v-.41h-.72l.24-.23v-.23l-.24-.18.24-.23h-.43l-.24.64.44.45c-.29,0-.44.21-.44.64h-.43l-.24-.86.24-.23h.19l-.19-1.09v-.64l.19-.23v-.18h-.43v-.23l.24-.22v-.23l-.24-.18-.24.18h-1.16v-.41l1.4-.23.24.23v-.45l-8.73-1.27Zm-6.41-7.32l.48.64-.24.23.92-.23-.24-.64h-.92Zm.24,31.02l.24.86c.61-.21.92-.42.92-.64h-.24l-.24.22-.44-.45h-.24Zm.24-41.2v.45h.44v.41h-.44v.23h.19l.24-.23h.24l.92.45v-.23l-1.59-1.09Zm.44,76.31l-.44,1.09h.19l.92-.23c-.22-.58-.45-.86-.67-.86Zm.48-79.08l-.24.64-.48-.45.24-.18h.48Zm-.72,16.17l.92,1.09.48-.45-.24-.23.24-.18-.24-.23h-.24v.23l-.19-.23h-.72Zm1.4,58.41l.24.23v.23l-.72.18-.67-.18.48.41,1.11-.23v-.64h-.43Zm.24-75.68l.44.64h-.24l.24.23v.41h-.67c0-.42-.22-.64-.67-.64l-.24.23v-.23c0-.33.39-.54,1.16-.64Zm-1.16,92.25v.68l.24.18h.19v-.18l-.19-.68h-.24Zm.24-81.67v.41l1.35-.23c0-.27-.22-.41-.67-.41l-.67.23Zm.19,68.73l-.19.23v.64l.19-.18h.24l.24.18v-.18l-.24-.23h.68v-.23l-.92-.23Zm0-63.14v.23l1.16.23c0-.3-.22-.45-.67-.45h-.48Zm.72,2.36l-.24.23.24.64.44-.41-.44-.45Zm-.24,4.54l.43.41.24-.18v-.23h-.67Zm.43-17.89v.23l.48.41h.67v-.23l-.44-.63-.72.23Zm0,7.54l.48.46h.24v-.46h-.72Zm3.9,1.96c0-.42-.22-.64-.67-.64v.64h.43v.64l-.68.63v-.18l.24-.23-.24-.63h-.24v.41h.24l-.24.63-1.11-.18-.24.18-.48-.86.24-.18h-.44v.41l-.72-.41v.18c0,.33.39.56,1.16.68v.41l-.24-.23h-.43c0,.3.39.45,1.16.45l.19.23v.18h-.92v.23l.48.86.43-.41.24.18h.67v-.41l-.43-.64h.24l.19.18h.24l-.24-.18v-.45l1.16-1.5Zm-3.66-4.54h.24l.43-.41h-.19l-.48.41Zm0,18.53v.23c.45,0,.68.15.68.45h.24v-.45l-.24-.23h-.68Zm.24-3.86v.41l.67.23v-.63h-.67Zm.24-16.62v.23l.44.45.24-.68h-.68Zm.19,10.36v.23l.72-.64h-.24l-.48.41Zm0,4.77v.41l.48.45h.24v-.23l-.24-.64h-.48Zm0,3l.48.45-.24.18h-.24v-.63Zm.48-16.4l-.24.68.67.18.24-.18v-.68h-.67Zm-.24,11.45v.41l.67.23h.24v-.23l-.91-.41Zm.24-19.62h.91v.41c-.45,0-.67.15-.67.45h-.24v-.86Zm.24,9.72l.43.41.24-.23v-.18h-.67Zm0,16.35v.23c.45,0,.67.21.67.63l-.48.45h1.64v-.22h-.48v-.64l.68.41.24-.18v-.23c-.54,0-.93-.21-1.16-.63l-1.11.18Zm.19,29.75v.46l.48.41v-.86h-.48Zm.72-48.28h.43l.48-.41h-.48l-.43.41Zm.92,36.02l.19,1.09-.43.41h-.24l.24-.23v-.86h-.67v.23l.43.45-.24.18v.68h.24l1.16-.45-.24-.23v-.18l.48-.45h-.48v-.23l.24-.18v-.22h-.67Zm-.72-24.17v.63l.72-.18-.48-.45h-.24Zm.92,2.59h.72l-.24.86h-.24v-.41h-.24v.41l.24.23h-.67l-.24-.23h-.24v.23l.48.41v-.18l.24.18h.43c0-.27.23-.41.68-.41l.72-1.73-.24-.23-.24.23h-.43v-.45c-.29,0-.53.36-.72,1.09Zm-.43-11l-.24.23v.41h.24l.24-.64h-.24Zm.92,15.08v.45h.43l.48-.45-.24-.18-.67.18Zm.24-24.12h.19l.72.18v.23l-.48.46h-.43v-.86Zm.67,22.62h.44l.48.45h-.48v.41l.24-.23h.48l-.24.86-1.16-.64.24-.86Zm2.51.86v.46h-.68l.43.63v.41l-.43.45-.92-.45v-.63c.29,0,.43-.21.43-.64l.24-.23h.92Zm-1.35-4.72l.68.18v.45h-.24l-.44-.45v-.18Zm1.11-16.85l.24.23v.22h-.68l.43-.45Zm.24,18.35h.24l1.16.23v.41h-.24l-.24-.23h-.24v.23l.24.23-.24.23v.18l.24.23v.23h-.91l.24-.23v-.23h-.48v-.41h.48v-.23l-.24-.64Zm.48-.86h.19l-.44.41h-.24l.48-.41Zm-.24,51.33v.86h.24l.19-.86h-.44Zm.44,3.86l.24.86h1.16v-.23l-1.16-.63h-.24Zm1.4-72.68l.24.23v.63l-1.16-.41v-.22l.92-.23Zm-.48,22.89h.48v.63h-.48v-.63Zm1.4-26.52v.18l-.48.45v-.23l.48-.41Zm-.24,22.62l.48.45-.24.18h-.48l.24-.64Zm-.24,2.81h.24c.61,0,.92.5.92,1.5h.48l-1.64.45h.48l-.48-.68v-.18h.48v-.45l-.48-.64Zm0,47.24v.18h1.4v.46l.24-.23h.19v.45h.24v-1.09l-2.07.23Zm.36-51.9c.08-.07.35-.11.8-.11l.67-.18v.41h-1.11c-.32,0-.44-.04-.36-.12Zm.56-16.47l-.19.64.19.23h.48v-.86h-.48Zm.48,69.41v.64l.24.23v.23l-.24.23h.24l.19-.68-.19-.64h-.24Zm1.16-47.65l.19,1.31h-.92l.24-.23v-.22h-.43v-.41l.19.18h.24c0-.42.16-.63.48-.63Zm-.24,51.51v.23h.68v-.64h-.24l-.43.41Zm0,5.63c.45,0,.68.13.68.41.77-.18,1.16-.39,1.16-.64l-.24-1.09c-1.06.57-1.59,1.01-1.59,1.32Zm.24-36.43v.41l.67-.18v-.23h-.67Zm0,23.07v.23l.19.86h.48c-.19-.73-.42-1.09-.67-1.09Zm.87-48.33l-.19-.18v.18l.43.45h.24l.24-.86-.72.41Zm.24,65.77v.41l.48.46,1.59-.46v.46h.92v-.46c-.32,0-.48-.21-.48-.64l-.92-.23.24-.18v-.68h-.24l-1.59,1.32Zm.92-63.82v.23l.67.86-.19.23v.64h1.35l.24-1.09h.43v.23l-.43.86h.24l.68-.64.24.18,1.35.68.24.18.24-.18.43-1.32-.24-.23h-.92l.24.23v.23h-.91v-.46h.48v-.18h-.24l-1.15.18-.68-.18v.18l-.24-.18h-.24l-.19.18h-.24v-.18l.24-.23v-.23h-1.4Zm.24-1.09v.68l.44-.45v-.23h-.44Zm1.59-23.26l-.24.64.24.23h.24v-.68h.92l.68,1.09h-.92v-.63l-.24.23h-.19l.19.18-.68.23h-.43l-.72-.23-.19.23c2.89-.55,3.81-.97,2.75-1.27l-.24-.23-.24.23h-.24l-.68-.23v.23Zm-.91-.68v.86l.24-.18h.24l-.24-.68h-.24Zm.48,27.39l-.24.23v.22h.24l.67-.22v-.23h-.67Zm.19-14.85v.63h.48v-.63h-.48Zm.92,4.54l-.19.18v.23l.19.23v.23l-.92.18v.23h.48v.41h-.48v.46l1.64,1.09v.41l.67-.23-1.15-1.73v-.41c.45,0,.67-.42.67-1.27l-.19.18h-.24l-.24-.18h-.24Zm-.19,7.31l-.48.41v.45h.24c.29,0,.43-.21.43-.64v-.23h-.19Zm0-.86l-.24.64h1.16v-.64h-.92Zm.44,50.01h.67v-.41h-.19l-.48.41Zm0,12.26v.46h.24l.43-.46h-.67Zm.48-69.41v.46h.19l.48-.46h-.67Zm.19,61.23v1.27c.58,0,1.04.73,1.4,2.18.29,0,.43-.21.43-.64l-.19-.68.19-.18-.19-.23.67-.23c-.16-.85-.38-1.27-.67-1.27l-.24.18h-.24c0-.42-.14-.63-.43-.63l-.72.23Zm.24-50.01v.22l.91.41.24-.18v-.23l-.24-.22h-.91Zm.24-9.27v.41h.24l.43-.41h-.68Zm1.16-1.73l-.24,1.09h.24l.43-.45v-.64h-.43Zm.67,2.36l-.24.86h.48v-.86h-.24Zm0-17.67v.41c0,.24.61.24,1.83,0l-.24-.18h-.24l-.43.41-.24-.63-.24.23h-.19l-.24-.23Zm.24,28.89l-.24.23v.23h.68l-.43-.46Zm-.24,15.94v.45l1.35.64h.48c-.19-.85-.42-1.27-.67-1.27l-1.16.18Zm2.27-9.27c0,.3-.23.46-.68.46l-.67-.23v.63h-.68c0-.42-.02-.42-.05,0-.03.42.35.64,1.16.64,0-.3.69-.52,2.07-.64v-.41l-1.16-.46Zm-1.83-9.26l-.19.63h.43v-.63h-.24Zm-.19,4.31v1.32h.43v-.46h.24l-.24-.86h-.43Zm.19,1.95l-.19.63h.43l.24-.63h-.48Zm-.19,44.38l.43.45h.24v-.45h-.68Zm.92-52.78h.19v.41h-.68l.48-.41Zm-.24,10.36v-.86h-.24l.24.86Zm0,23.03l-.24.68h.48l.19-.68h-.43Zm0-58v.23c.77,0,1.16.21,1.16.63h.19l.72-.63h-.24l-.68.23v-.23l-.24-.23h-.24l.24-.18v-.23h-.48l-.43.41Zm.24,28.25l-.24.23.24.86,1.11-.41v-.68h-.19l-.72.23-.19-.23Zm-.24,1.54v.18l.43.45h.24l-.67-.64Zm.43,1.91v.68l-.19-.23h-.24l.24,1.5h.67v-.23l-.48-1.04h.72c0-.46-.16-.68-.48-.68h-.24Zm-.43,42.92v.63h.43v-.23l-.43-.41Zm.43-36.43l.24.18h.24v-.64l-.48.45Zm.92-4.77l-.19.86h.43l.24-.86h-.48Zm.24,44.42l-.43,1.05.19.23,1.4-.41c-.06-.3-.45-.59-1.16-.86Zm-.24-24.8v.23l.24,1.5h.24v-1.73h-.48Zm.24-22.85v.23l.48.41.67-.18v-.23l-.48-.45-.68.23Zm2.99-16.81c0,.24-.47.6-1.4,1.09,0,.43-.31.64-.92.64l.48-.64h-.67v-.45l2.27-.64h.24Zm-2.51,66.59v.23l.43.41v-.64h-.43Zm.19-48.06c0,.3.24.46.72.46h.19v-.23l-.92-.23Zm.48,2.59v.23h.24l.19-.86c-.29,0-.44.21-.44.63Zm0,2.14l.24.23h.19v-.63l-.44.41Zm.24.46l.19.64h.24v-.41l-.24-.23h-.19Zm2.51-22.62h.43v.86h-.19l-.24-.23h-.24c0,.43-.31.64-.92.64l-.67-.23c.29-.7.9-1.04,1.83-1.04Zm-1.59-10.36v.41h.19l.48-.41h-.67Zm.92,17.03l.43.64c-.45,0-.67.14-.67.41l.24.23h.19l.72-.23v.23l1.11-.41v-.68c-.61,0-.92-.14-.92-.41l-1.11.23Zm.19-9.95h.48v.68l-.48-.46v-.22Zm.24-4.09v.45l.67.18.24-.18v-.22l-.24-.23h-.67Zm.24-6.27l.24.23v.23l.92-.63v-.68l-.72.86h-.43Zm.43,26.12h.72l.43-.45h-.67l-.48.45Zm.24-8.63v.41h.24l1.16-.41v-.23l-.48-.41-.67.64h-.24Zm0,4.31v.41h.92v-.41l-.24.23h-.19l-.24-.23h-.24Zm1.4,55.37c0,.58-.38.86-1.16.86l.24,1.09h.43c.23,0,.53-.58.92-1.73l-.24-.23h-.19Zm-.48-74.77c.32,0,.48.29.48.86h.44v-1.32h-.44l-.48.46Zm.92,11.63c.45.15.67.59.67,1.32l-.19.18h-.73l.24-1.5Z"/><path d="m125.21,122.27h19.24l.24.23.24-.23h3.62l.24.23.19-.23c11.79.76,17.69,1.9,17.69,3.41h.24l.19-.18h.24c.9.34,1.35.61,1.35.82l-.43.45.24.18h.19l.48-.41c3.76,2.79,5.64,6.71,5.64,11.76v21.53l-.19.23.19.23v5.99c0,8.24-3.92,13.28-11.76,15.13-4.21.88-8.9,1.32-14.08,1.32h-1.79v32.2c-.35.73-1.11,1.09-2.26,1.09h-19.04c-1.67,0-2.51-.79-2.51-2.36v-14.53l.24-.82-.24-.86v-9.81l.24-.86-.24-1.5v-24.12l.24-2.36-.24-1.73v-.82l.24-.23-.24-.23v-10.04l.24-.23-.24-.18v-.46l.24-.18-.24-.23v-6.81l.24-.23-.24-.23v-4.68l.24-.23v-.23h-.24l.24-.18-.24-1.09v-.63l.43-.64-.43-.64.24-.63-.24-2.13v-1.5c0-1.57.61-2.36,1.83-2.36Zm-.24,7.91l-.44.41.44.45.24-.63v-.23h-.24Zm-.24,12.17v.41l.67.23.48-.41.19.18h.24l.48-.82-2.07.41Zm1.59-14.31l-.24.23v.18l.48.45.43-.45v-.18l-.67-.23Zm.24,1.04l.92.68.19-.23v-.23l-1.11-.23Zm1.35,8.13l-.24.23v.23l.68-.23v-.23h-.43Zm.43,3l.48.41.43-.41h-.92Zm1.59-10.04v.63l.48.41h.92l-.48-.82-.24.18h-.19v-.41h-.48Zm.92-3.23c0,.58-.14.86-.44.86l.19.86-.19.63h.19l.24.64h.24c0-.42.22-.64.67-.64l-.24-.23v-.82c.32,0,.48.21.48.63h.43v-.86h-.43c0-.27-.23-.41-.68-.41l.19-.23v-.23l-.19-.23h-.48Zm.91,8.77v.45l.24-.23h.43v.41h.24v-.41l-.24-.23h-.68Zm.92-13.04v.23c.9.67,1.35,1.24,1.35,1.73l.24-.23h.19l1.4.86v.23h.19v-.45c-.45,0-.67-.29-.67-.86-.96,0-1.64-.42-2.03-1.27l-.67-.23Zm.92,5.13v.23l.67.23.67-.23-.48-.41-.87.18Zm.19,8.13l.48.41v-.41h.19v.41h.48l-.48-.64-.67.23Zm.48-10.9v.45h.67v-.23l-.67-.23Zm.67-1.27h1.11v-.41h-.67l-.43.41Zm.43,3.86l.24.63.68-.63-.24-.23-.67.23Zm.24-1.09l.24.64h.19l.24-.86h-.24l-.19.23h-.24Zm.24-3.86v.45h.67l-.48-.45h-.19Zm1.11,9.63l.68.64h.24l-.67-.64h-.24Zm3.86,73.86v.45l.24.18h.19l-.19-.64h-.24Zm.92-79.86v.45h.24l.43-.45h-.67Zm1.35,15.63v.18h.92v-.18h-.92Zm1.83-9.4l-.24.18v.23l1.11.41v-.18l-.87-.63Zm.68,23.03v.46h.43v-.46h-.43Zm1.79-17.26l-.2.18v17.31l-.24-.23h-.25v.23l.25.23-.25.23.48.41v1.27l-.92,1.27.24-.18h.67v7.68c2.57-.27,3.86-1.27,3.86-3l.19-.86-.19-.18v-1.5l.19-.86-.19-.87.19-.23-.19-.18v-.23c0-.27.22-.41.67-.41v-.23h-.67v-.23l.43-.63h-.24l-.19.22v-.22l.19-1.27-.19-.64.19-.23v-.23l-.19-.82h.43v-.45h-.43v-.86h.43v-.18h-.43v-.86l.19-.23-.19-.23v-8.09l.19-.86c0-1.88-.67-3.09-2.03-3.63l-1.83-.41Zm-.43-8.13l.24.23h.2v-.64l-.43.41Zm3.37-6v.86l.72.64h.19c-.45-.51-.67-1.02-.67-1.5h-.24Zm1.83,19.67v.22h.24l.68-.22v-.23h-.24l-.67.23Zm.67,14.08v.23h1.16v-.23h-1.16Zm1.59-.23v.45h.92v-.23l-.92-.23Zm.48-27.75l.43.46h.24l-.48-.46h-.19Zm.87,32.25l-.2.23v.86l.68-.64-.48-.45Zm3.67-32.89h.19l.48-.41h-.24l-.43.41Zm0,.64v.46h.67l-.48-.46h-.19Zm.67-3v.86h.19v-.41c.32,0,.48.21.48.64h.68c0-.42.15-.64.44-.64v-.23l-1.79-.23Zm2.02,3l.43.46h.68v-.46h-1.11Zm.24-1.05v.41h.67l-.48-.41h-.19Zm.43-2.13l.43.41h.24l-.44-.41h-.24Zm.92.86v.41h.67l-.43-.41h-.24Zm1.35,2.31v.46h.67v-.46h-.67Zm.24-1.5v.86h.44v-.41l-.44-.45Zm2.27,15.4v.22l.67.18v-.41h-.67Zm.43-13.9l.48.46h.43v-.46l-.24.23-.19-.23h-.48Zm2.07,34.2v.41h.44v.23l.68-.23v-.64l-1.11.23Zm.68-30.8l-.24.23v.23l.68-.23v-.23h-.44Zm.44-3.18l.43.41h.24l-.43-.41h-.24Zm.91,18.8v.41l.68.23v-.23l-.68-.41Zm1.35-1.32v.46h1.16l-.48-.46h-.68Zm.24,1.73h.2l.48-.41v-.23l-.68.64Z"/><path d="m315.17,121.9h16.29v.45h.24v-.45h5.5c.8,0,1.27,1.01,1.4,3.04v.86c0,.28-.31.41-.92.41v.23h.92v1.32l-.24.86.24.18-.24,3.27.24,3.91-.24.86.24,1.09-.24,3.23h.24l-.24.23v.64h.24l-.24,1.54v2.36l.24.64-.24,1.09v2.36l.24,2.81-.24,1.77.24.64-.24,1.09.24.86-.24,1.95.24,3.45-.24.23v.18l.24.86v.91l-.24.18.24.23v36.79h16.29c1.19,0,1.96.36,2.32,1.09v8.22l.19.18-.19.23v4.14c-.42.73-1.03,1.09-1.83,1.09h-39.1c-1.67,0-2.51-.8-2.51-2.41v-67.5l.24-.22-.24-.23v-4.95l.24-.86-.24-.68h.24l-.24-.18v-.23l.24-1.09-.24-.23h.24l-.24-.23.24-3h.24v.41h.43l-.24-.23v-.18l.24-.23v-.23h-.92l.24-1.09-.24-.18.24-.23v-1.54c.29,0,.44-.21.44-.63h.48l-.24.23v.41h.67l.48-.41c-.32,0-.48-.29-.48-.86h-.44v.41h-.48l.24-.18v-.22c-.45,0-.68-.15-.68-.46h.68v-.18c-.45,0-.68-.15-.68-.46v-.63l.44-.46.24.23c0-.3.3-.45.92-.45v-.64l-.68.45h-.91v-2.18l-.24-1.95c.32-.97.79-1.54,1.4-1.73Zm-.92,17.76c0,.21.3.42.92.64v-.64l-.48-.45-.43.45Zm.43-14.94v.64l.67-.23-.44-.41h-.24Zm5.98,6.72l-.24,1.09v.41h.48v.45h-.24l-.24-.23h-.24l-.19.23v.18h.68l.24.23h.19l.24-.86h.24l.48.45v.18h-.48l-2.31,2.41c-.65-.6-1.01-1.18-1.11-1.73l-.73-.23-.67.23-.67-.23c-.68,2.09-1.14,3.16-1.4,3.22l.24.68h.24l.19-.86h.24c.32,0,.48.21.48.64l-.24.64.24.23h-.72v.23h.48v.18l-.24.68h.24l.67.64v.23c0,.27-.31.41-.91.41l.67.68c0-.45.38-.68,1.15-.68v-.41c-.61,0-.91-.29-.91-.86h.67c0-.24-.37-.47-1.11-.68l.19-.64h.48l1.16.23v-.45h.44v.45h.48v-.45h-.48v-.18l.24-.68h.91l.24.23v2.41-.23h-1.59v.41h.19l.72-.18v.18l-.24.23v.23c.61,0,.92.14.92.41v.46c.61.27,1.14.41,1.59.41l.24.23v.23h-.48l.48.41.67-.41c0,.15.31-3.24.92-10.18-1.38,0-2.08-.21-2.08-.64h-.43Zm-4.82-6.09c0,.33.39.56,1.16.68v-.23l1.16-.23-.24-.23v-.23l-2.07.23Zm1.83,16.26h.68v.18h-.92v-.18l-1.15.18v.23h1.4c0,.49.23.92.68,1.31h-.44c0,.43.23.64.68.64l-.43.46-.24-.23-.24.23.24.63c.9-.33,1.35-.62,1.35-.86v-.23h-.44v-.23h.44v-.64l-.19-.23v-.23h.67v.23l-.24,1.09.24.23h.24l.19-.23v-.23l-.19-.18v-.23h.43v-.22c-.48-1.15-1.17-1.73-2.07-1.73l.48-.64h-.24l-.92.86Zm-1.4,1.04v.45l.91.45-.19-.23v-.22l.19-.64h-.19l-.72.18Zm.24-4.09l.48.41h.19l-.43-.41h-.24Zm.67-16.03v.23l.48.45h.24l-.72-.68Zm.24,21.03l-.24.18v.23h.72l-.48-.41Zm0-6.31l.48.46-.24.23h-.24v-.68Zm.92-13.4l.72.64.19-.23c0,.46.24.68.72.68v-.23c-.16-.57-.7-.86-1.64-.86Zm.48,12.36l.24.18h.19l.24-.18v.18l-.43.46h-.24v-.64Zm.44,8.4l.24.23v.23l-.43.41v.86h.91l-.24.23v.45h.24v-.45h.19l.24.23h.24l.24-.23v-.23h-.72l.24-.18v-.46h-.24l-.19.23h-.24l-.24-.23v-.23l.68-.18-.19-.68h-.72Zm.91-18.39v.68h.72v.18c-.77,0-1.16.15-1.16.46l.67.41c.32,0,.48-.21.48-.64l.19-.23h.24l-.24-.86h-.91Zm-.19,2.18l-.24.23v.18l.92.46.24-.22v-.23l-.92-.41Zm.19-3.45l.24.64h.24v-.64h-.48Zm0,4.95v.46h.72l-.48-.46h-.24Zm1.88,13.67h-.48l-.24-.23h-.24c0,.27-.22.41-.67.41v.23c.03.73.2,1.09.48,1.09l-.24.23v.86h.24l.19-.23h.24l.24.64-.91,2.18h.24c.55-.42.84-.75.87-.98.03-.23.04-.76.04-1.61.03-.46.11-1.32.24-2.59Zm-.24-16.03v.41h.43c0-.27.24-.41.72-.41v-.64l-1.16.64Zm0,1.72h.68v-.46h-.24l-.43.46Zm4.34-3.91l-.19.23v.23c.1.85.32,1.27.67,1.27h.24c0-.42.23-.63.67-.63l-.24-.23v-.18l-.24.18h-.43c0-.58-.16-.86-.48-.86Zm2.79-3.23v.23l.68.18v-.18l-.24-.23h-.44Zm1.83,23.57l1.35-1.95h-.24l-1.11,1.95Zm.19,6.27h.92v.45h-.44v.23h.24l.67-.23-.24.64-1.16-.23c0,.27.69.58,2.08.91,0,.27-.31.41-.91.41l-.24.64h.24v-.18c.61,0,.91.29.91.86l1.16-.45-.24-.64-.19.23h-.24v-.45l-.24-.23.24-.18.92-.45h.24v-.86c-1.09-.09-1.64-.3-1.64-.64l.24-.23c-.29,0-.43-.29-.43-.87l-.48.41v.23h.48v.46h-.72c0-.36-.23-.73-.68-1.09l.44-.45c-.61,1.6-.92,2.18-.92,1.73Zm.24,3.68v.23l.92.45v-.23l-.92-.45Zm.48-9.31l.19.23v.45h-.44v.23h.68l.24-.68-.67-.23Zm-.24,2.81v.68h.44v-.23l-.44-.46Zm.92-4.72l-.48.86.24.18.24-.18h.67v.86c.55,0,1.01-.52,1.4-1.55l-1.4.46v-.23l-.43-.41h-.24Zm.92,4.31v.41l.24.23v.23h-.91l-.24-.23h-.24v.64l1.16.45c0-.58.22-.86.67-.86v-.86h-.67Zm-1.16,9.95l.91.23.24-.23v-.41h-.67l-.48.41Zm.48-19.9v.41h.43v-.86l-.43.45Zm.43-3.27l.24.68h.24v-.46l-.24-.23h-.24Zm0,1.95v.45h.72v-.45h-.72Zm.91,8.86v.46h.48c0,.3-.38.45-1.16.45l-.24.64h.48c1.22-.43,1.83-.86,1.83-1.32l-.24-.23h-1.16Zm-.67,9.54v.45c.32,0,.48.21.48.64l.19-.23.24.23h.48c-.2-.73-.44-1.09-.73-1.09h-.67Zm.92-16.22v.23c.45,0,.67.14.67.41v.23l-.67-.23-.68.23v.23l1.16.86v.41h.43c0-.73.31-1.09.92-1.09v-.18c-.45-.73-.98-1.09-1.59-1.09h-.24Zm-.44-2.59v.18l.92.23-.48-.86-.44.45Zm.19,11.04c.1,1.15.26,1.72.48,1.72l-.24.18v.45h.91l-.43-.64v-.23h.19l.24.23h.24v-.45h-.48v-.41l.48-.68-.24-.18h-.24l-.67.18-.24-.18Zm.24-12.36v.23l.48.41.43-.41-.24-.23h-.67Zm.24-.23h.24l.43-.41h-.24l-.43.41Zm.43,9.31l-.19.86.19.23h.48l.43-.46c-.29,0-.43-.21-.43-.63h-.48Zm0-19.9l.48.41.43-.41h-.91Zm0,29.21v.45h.48l.24-.23.19.23h.72l-.24-.68h-.24l-.24.23h-.19v-.23l-.72.23Zm.48-17.3l.24.63h.19v-.63h-.43Zm.24,11.67v.23l.67.64.24-.23v-.18l-.24-.23,1.59-.64v-.46h-.19l-2.07.86Zm.19-2.18v.46h.72l-.48-.46h-.24Zm0,1.54h.72v-.46h-.24l-.48.46Zm.48,7.99l-.48.64h.24l.72-.18-.48-.45Zm-.24-29.84v.18l.48.45h.24v-.23l-.48-.41h-.24Zm.24,17.08v.45l.24.18v.23l-.48.46.48.41-.24.23h.24c.45,0,.67-.29.67-.86l.68-.23-.19-.86h-.48v.86h-.44v-.86h-.48Zm.67-2.59v.64l.92-.23v-.41l-.19.23-.24-.23h-.48Zm.24,12.31l.48.46h.19v-.46h-.68Z"/><path d="m382.65,121.31h26.52c1.41,0,2.25,1.46,2.51,4.36l1.4,8.68h-.24c.32,0,.87,2.76,1.64,8.27l-.24.18h.48l-.24.23v1.32l.24-.23h.19l.48,4.13h-.24l-.24.23-1.35-.45v.45l.19.18-.19.23v.23l.19.64.48-.41h-.24l.24-.68h.67l.48.45v.23c-.55,0-1.09.36-1.64,1.09h.72v1.73l-.24.23v.23c1.22.15,1.83.65,1.83,1.5l.24-.23h.24v.46l-.48.41v-.41l-.24.23-.19-.23h-.24l-1.16.23.24-.23v-.23c-.16-.57-.4-.5-.72.23v.41l.72.23v.46h-.72v.41c.77,0,1.16.15,1.16.46h-1.16v.23c.77,0,1.16.35,1.16,1.05l.48-.41-.24-.64h.68v.18l-.19.23v.23l.19.86h.24l.48-.45-.48-.41c.32,0,.48-.21.48-.64l.24-.23h.19v.23l-.19,1.05.19-.18h.24v1.09l-.43.64.19.23h.24l.24-.23v.64c-.45,0-.67.15-.67.46v.23h.43v-.46h.48l5.49,32.34-.19.22h-.24l-.92-.41v.41l1.59.46v.41h-.44v.23l.19.68-.43.41-.24-.23h-.43l.19.23v.45h-.19l-.48-.45.48-1.73c-.93.18-1.4.47-1.4.86l.43.45v.63h-.19l-.92-.63h.44l-.25-.68h-.19c0,.45-.08.53-.24.23l-.24-.23v-.23l.24-.18v-.23l-.24,3.04,1.4-.46-.24.23v.23l.43.41h.24v-.18l-.24-.23v-.23h.24l-.24-.23v-.41l1.88.41.44-.86h-.44l.44-.41h.24v1.27c-.61.09-.91.32-.91.68l.24.18h.44v-.41h.48v.23l-.24.18v.23l.49.46-.49.41-.48-.41-.67.18.67.68.97-.45.43,2.18c-.45,0-.67.14-.67.41v.46c.77,0,1.16.78,1.16,2.36h-.48v.68l.24-.23h.24c1.38,6.48,2.07,10.6,2.07,12.36-.64.6-1.42.91-2.32.91h-19.58c-1.7,0-2.55-.8-2.55-2.41l-.24-1.72.24-.68c-.55,0-.93-1.96-1.16-5.86l-.92-5.4.24.18h.19v-.41c-.48,0-.85-1.44-1.11-4.31h.44v-.23c-.45,0-.67-.44-.67-1.32l2.31-1.27h.19l.48.41v-.64c-.45,0-.68-.23-.68-.68l-1.88,1.09v.23l.24.23v.23h-.24c-.45-.15-.67-.59-.67-1.32v-.86h-6.7c-.42,0-1.03,3.76-1.83,11.26-.42,2.3-.95,3.53-1.59,3.68l-.97.86v.46l.72-.23-.24-.23v-.18h.48l.67.18c-.45,5.81-1.14,8.72-2.08,8.72l-1.39.22h-19.58c-1.54-.12-2.31-.56-2.31-1.32,2.28-14.63,3.58-21.94,3.9-21.94h.24v-.18h-.43l.68-3.04.43-.45h-.43c1.09-7.54,1.86-11.31,2.31-11.31l-.24-.18v-.23c4.59-27.28,7.13-41.7,7.62-43.24h.19l-.19-.18v-.23l.19-2.41.24.23h.24l-.24-.23v-.18l.48-2.63c.61.61,1.22.97,1.83,1.09l.24.23v-.45l-.24-.23c-1.06-.33-1.59-.62-1.59-.87l-.24-.63c.19-1,.42-1.5.67-1.5l-.24-.23v-.23c0-3.33.85-5,2.55-5Zm-11.09,58.01c0,.27.24.41.72.41l-.24.23v.23h.24l.24-.23v-.23l-.48-.41h-.48Zm.72-3.27v.23l.44.41v-.23l-.44-.41Zm.92,15.4v.86h.24v-.86h-.24Zm.24,5.68v.41l.67-.23v-.64h-.24l-.43.46Zm.67-27.62v.91h.24v-.91h-.24Zm0,1.54v.63l.92.23v-.45l-.92-.41Zm1.16,1.32c0,.36.53.65,1.59.86v-.22c0-.3-.53-.51-1.59-.64Zm1.4-.45l.43.45.72-.23v-.23h-1.16Zm1.35-23.26l-.43.45v.23h.43l.24-.23v-.45h-.24Zm-.43,47.79v.23l.67.46h.24v-.23l-.92-.45Zm.67-42.34v.46l.67-.23v-.68h-.19l-.48.45Zm.24,26.71v.22c.45.49.68.92.68,1.32h.24v-.91c-.32,0-.48-.21-.48-.64h-.43Zm.43-3.45v.41h.24l.48-.41h-.72Zm.48,15.4l.24.64h.24v-.64h-.48Zm2.07-63.87l.48.46.44-.46h-.92Zm.48,64.5l.19.23v.23l-.68.64v.23l.48.45h.19v-.23l-.19-.22v-.23c0-.42.22-.64.67-.64l.24-.23v-.41h-.24l-.67.18Zm.19,9.31l-.19.23v.45h.19l.48-.45-.24-.23h-.24Zm-.19,9.99v.91h.19v-.91h-.19Zm.92-42.75v.23l1.16.23-.48-.91h-.25l-.43.45Zm0,41.7v.41h.67l-.44-.41h-.24Zm.43.64v.23c.07.3.45.59,1.16.86v-.68l-1.16-.41Zm.48-77.95v.41h.68l-.44-.41h-.24Zm0,64.91v.64l.44.45h.24v-.23c-.23-.57-.45-.86-.68-.86Zm.24-28.43v.23l1.16-.23v-.41h-.72l-.44.41Zm0,22.16c.29.91.67,1.41,1.16,1.5v-.41h-.48c-.1-.73-.32-1.09-.67-1.09Zm.92-6.31v.23l.24.23h.44v-.23l-.67-.23Zm.24,3.5v.86h.2v-.86h-.2Zm2.99-20.85v.18l.19.23v.23h-1.11l-.24-.23h-.24v.68h.24l.67-.23v.41h-2.07l.48.46h1.59v-.46l1.16.23c0-.27.22-.41.67-.41v-.23l-1.16-.86h-.19Zm-2.55,0l.48.41.19-.23v-.18h-.68Zm.92,35.57v.45l.72.23v-.23l-.48-.45h-.24Zm.24-45.15v.68h.24l.44-.46-.68-.23Zm1.16-28.66v.68l.44-.45-.19-.22h-.24Zm.92,47.15l-.24.18v.45h.48l-.24-.23v-.23l.24-.18h-.24Zm-.24,26.48v.87l.48-.45-.24-.23h.24l.24.23h.43v-.23l-1.16-.18Zm.92-36.47v.23h.72l.24-.23v-.23l-.96.23Zm1.88-6.31v.22l.44.41h.24v-.41l-.67-.22Zm.44,7.81v.45c.38,0,.77.21,1.15.64l.24-.23v-.18l-1.39-.68Zm.48-8.22l-.24.18v.23h.68l-.43-.41Zm-.24,11.27v.68l.68.86h.24l-.67-1.54h-.24Zm.68-7.36v.18h.24c0-.27.31-.41.92-.41v-.23l-.24-.23v-.23h.24l1.16.23v-.23l-.43-.64v-.23c.61,0,.91-.29.91-.86-.41,0-1.35.88-2.79,2.64Zm.72-3.73l-.24.23.24.64h.44v-.41h.24l.67.23v-.45l-1.35-.23Zm2.23-1l-.24,5.22h-.61l.31.23v1.66l-1.16.29v.29l.85.23-.55,6.89h3.17l-.55-6.89h.85c0-.46-.39-.73-1.16-.8v-1.66l.3-.23v-.29h-.61v-.29l-.3-4.65h-.31Zm-.39,24.48l.43.41h.24l-.44-.41h-.24Zm2.31-14.76v.18l.68.23v-.64l-.68.23Zm2.75,26.89v.91l.48-.45v-.46h-.48Zm.48-2.59v.86h.19v-.41h.48l.24.18h.24l.19-.63h-.19l-.97.22-.19-.22Zm.19-30.84l.48.45h.24l-.48-.45h-.25Zm.48,32.39h.48v.41h-.24l-.73-.41.25.63h.91l.24-.86-.24-.23h-.19l-.48.46Zm.24,1.04l-.24.23v.45h.48l-.24-.22v-.23h.43v-.23h-.43Zm.43-28.66v.68h.24l.48-.45v-.23h-.72Zm0,25.43v.41l.72.23h.19v-.23l-.91-.41Zm.48-33.25h.43c-.61,0-.75,0-.43,0Zm.24,46.47v.41h.67v-.18l-.67-.23Zm.67-10.4v.23l.91.18v-.18l-.24-.23v-.23l-.67.23Zm0,14.31h.48l.43-.46h-.43l-.48.46Zm1.16.45c0,.42.22.64.68.64v.23l-.68.18c0-.58-.16-.86-.48-.86h-.67v.45l.67.23-.19.18v.91h.43c0-.45.31-.68.92-.68l.72-1.09-.24.23h-.48l.24-.23v-.18h-.24v.18l-.2-.18h-.48Zm.92-43.43l-.24.23v.18l-.2-.18h-.48l.48.41.67-.64h-.24Zm-.92,25.39v.45l.68.23v-.45l-.68-.23Zm.92,8.9l-.24.63.72-.23v-.41h-.48Zm.68,8.45l-.2.68c.45,0,.68.21.68.64h.48l.44-.45v-.86h-.24v.45h-.67v-.45h-.48Zm2.07-11.72c0,.42-.45.64-1.35.64l.24.23v.23c-.64,0-.96.37-.96,1.09v.41c.64-.24.96-.53.96-.86h.19l.24.23h.24l.43-.45.24.23h.24c-.45-.42-.67-.85-.67-1.27h.67l-.48-.45Zm-1.59-3l-.24.63h.72l-.24-.63h-.24Zm.92,5.81l.24.64h.67v-.18l-.91-.46Zm1.4,5.63v.68h.43v-.68h-.43Zm2.99-60.1c0,1-.55,1.5-1.64,1.5.61.3,1.38.02,2.32-.86l-.19-.64h-.48Zm-1.4-11.08l.24.18h.48v-.18h-.48v-.68l.24.23h.24l.19-.86c-.45,0-.68-.29-.68-.86h-.24c.16.27.24.56.24.86l-.24,1.32Zm.24,2.82l-.24.23v.18l.24.23h.24l.24-.23v-.18l-.24-.23h-.24Zm0-1.95v1.09l.48-.45h-.24l.24-.23v-.41h-.48Zm0,2.82l.24,1.5.24-.18h.19l.96.64-.25.86v.45h.25c0-.45.14-.68.43-.68v-.41l-.24-.23v-.23l.24-.23c-.45,0-.68-.29-.68-.86l-1.4-.64Zm0,4.77v.23c0,.21.31.43.92.64l.24-.64-.24-.64-.92.41Zm.48,5l.19-.22h-.43l.24.22Zm.44-15.85l.24.64h.48v-.64h-.72Zm.24,79.49v.18h.68l.48-.41v-.23h-.67l-.48.45Zm1.16-67.77v.68h.43v-.23l-.19-.23.19-.23v-.41l-.43.41Zm.43,11.31l.24.22.24-.22v-.23l-.48.23Zm1.16,3.91l.72-.23v-.41c-.48-.39-.72-.76-.72-1.09h-.67v.41h-.48v-.41l1.16,1.73Zm-.92-9.99l.72.23v.41h-.24l-.48-.41v-.23Zm0,13.67v.68l.72.18v-.41h-.48v-.23h.48v-.23h-.72Zm.48-6.49v.41l.24.23h.19l-.19-.64h-.24Zm1.35-8.68l.24,1.27-.24.23v.23l.24,1.09-.24.23h-.19l-.48-1.54h.48c0-.3-.24-.45-.72-.45l-.19-.18v-.23l1.11-.64Zm-.68,5.18h.48l.19,1.09h-.68l.24-.23-.24-.18v-.68Zm0,4.59h.92l.48-.45v-.23c-.93.15-1.4.38-1.4.68Zm1.16,52.97l-.24,1.32h.48c0-.45.22-.68.67-.68,0-.21-.3-.42-.91-.63Zm.48-41.47v.23h.67l.67-.64v-.23c-.9.15-1.35.36-1.35.64Zm.67,37.11l-.24.23v.45h.24l.24-.68h-.24Zm-.24,5.45v.23l.91.18c0-.27-.22-.41-.67-.41h-.24Zm.24-3.91v.18l.43-.41v-.23l-.43.45Zm2.31-14.99l.43.86v.23l-.67-.41.24-.68Zm0,3.9c0,.73-.08,1.38-.24,1.95,0-.57.3-.86.92-.86v-.86l-.68-.23Zm.43-8.68v.45h.25l.48-.45h-.73Zm0,12.35v.46c.49,0,.87.21,1.16.63l.92.23c0-.27-.61-.71-1.83-1.32h-.25Zm.49,2.41v.41l.24.68h.43v-.45l-.67-.64Zm.24,3.46v.23l.19.23h-.43l.43.41h.72l-.91-.86Zm.19-6.5l.24.63h.72l.43-.41v-.45l-.68.45h-.24l.48-.68h-.24l-.72.46Zm.24,11.72h.24l1.4-.23v.45h.44v-.45l-.44-.41h-.24c-.93.12-1.4.33-1.4.64Zm.24-13.9v.23h.68v-.64h-.19l-.48.41Zm.24-.64h.68v-.41h-.24l-.44.41Zm1.16.41h.67v-.41h-.24l-.44.41Zm1.59,5.22l.24.22h.24v-.68l-.48.45Z"/><path d="m233.13,177.51c9.26,23.73-11.58,38.78-11.58,38.78h30.68c-.58-13.28-19.1-38.78-19.1-38.78Zm12.04,32.83h-2.14v-.7l1.65.7h-1.65v-.56l.66-.14c-.17,0-.05-.46-.12-1.37l.3.61.63.32h.18l-.55-.32-1.1.07v1.39h2.14Zm-1.68-2.93h-.36l.18-.42c.58,0,.86.42.86-.28h-.1.6l.18-.08c0,.36-.46.78-1.37.78Zm-.36,1.69v-.99h.7v1.35c-.7,0-.52.23-.52.68l-.88-.36v-.28h.89l-.19-.22v-.18Zm1.37-2.56l-.15-.18.15-.68h.36c0,.34.11.5.33.5l-.33.36h-.36Zm.68.69v-.36h.18l.36.36h-.54Zm.54.5v.36h-.54l.36-.36h.18Zm-1.05-1.4h-1.35v-4.25.18-.5,1.25h.85c.46,0-.85-1.14-.85-.57v.15s1.35.42,1.35,3.75Zm.51-6.99v.5h-.15l-.18-.5h.33Zm-.68-1.37h.18l-.32.32h-.18l.33-.32Zm-.5.5h.5l.18.18-.32.32-.36-.32v-.18Zm-.32,1.05l.32-.36.36.68-.68-.18v-.14Zm-.54.32h.54v.36h-.54v-.36Zm-.5,6.87h.18l.32-1.04v.18l1.05-.36c-.29.82-1.05,1.22-1.05,1.22h0s-.5,0-.5,0l-.18-.19-.18.37.36-.17Zm1.37,8.58l-.18-.18-.14.18c0-.33-.12-.5-.36-.5v-.36h.5c.22,0,.4.29.54.86h-.36Zm-.67-2.32h.85l-.58.06h-.26v1.04h.34l.14-.51.18.34-.42.28c0-.46-.24-.77-.24-.77v1.76h-1.06l.18-1.31c.45,0,.68-.52.68-.73-1.03-.26-1.55-.71-1.55-.92l.87.08h.18s-.5.67-.5.67h-1.01v-1.11h1.3-.83.13c.08,0,.2-.7.37-1.13-.04-.05-.09-.23-.14-.27l.32-.42c-.07.18-.13.65-.18.8.24.24.37,1.03.37,1.03h.88,0v-1.54c0,.46-.06.68.16.68l-.78.18c0,.26.63.43.63.5v1.28Zm1.53.45h-.36v-.36l.54-.18v.18h.15l.18-.18h.18l.18.54h-.54l-.15-.18-.18.18Zm.5,1.51h-.18l.36-.5.36.36-.54.14Zm1.37-2.56h-.14l-.36-.36h.5v.36Zm-.12-4.11l-1.04.51.34.18v.14l-.54.18-.86-.5v-.18l2.06-1.18h.03v.86Zm-.39-3.02c0,.46-.17.76-.5.76h-.18l.18-.26-.26-.36.46-.4v-.38h.7v.27h0v-.27h-.03l.14.57-.5.06Zm-.18-2.49v-.51h.36l.18.18.14-.18v.32l-.69.18Z"/><polygon points="226.34 151.84 226.34 152.36 226.68 152.48 226.84 152.01 226.34 151.84"/><polygon class="cls-2" points="205.43 128.8 205.8 128.88 205.43 128.13 205.16 128.26 204.94 129.03 205.05 129.25 205.21 128.9 205.43 128.8"/><path class="cls-2" d="m220.2,120.5c-8.34-5.27-16.69-10.53-25.02-15.79-1.16.64-2.32,1.29-3.49,1.93,1.35,3.35,2.7,6.7,4.07,10.1-.04-.31.09-.8.41-1.52l.27-.13.26,3.08.64.62.27-.13.08-.37.27-.13.5,1.02-.14.4c.32-.16.71.18,1.17,1.02l.14.27c-.5.25-.67.53-.51.86l-.27.13-.4-.14-.54.26c-.6-1.57-1.01-2.63-1.24-3.18-.19-.39-.35-.7-.48-.98.76,1.9,1.54,3.82,2.32,5.76l.47-.78.77.22-.54.27.13.27.4.14c.5-.25,1.17-.38,2.01-.39l.26.54c.16.32.58.31,1.26-.02l.14.27-.14.4.11.21.7-.61.21-.11.24.48-1.77.88-.13-.26,1.41,2.84.4.14,1.02-.5-.13-.94-.11-.22-.53.27-.27-.53.54-.27.26.54.48-.24-.26-.54,1.42-.37.54-.27-.16-.86c-.94.16-1.49.09-1.63-.2l.75-.37c-.34-.68-.84-.85-1.52-.51l-.24-.49c.86-.42,1.15-.9.89-1.44l1.15.43c-.68.34-.94.67-.78.99l.13.27,1.12.38.27-.13.13.94.1.21.54-.27.13.27-.8.4.4.14.1.88c.25.5.55.66.91.48l.27-.13-.29-1.12.27-.13.66.67c-.25.21-.14,1.74.33,4.58l-.88.1-.62.64-.94.13c-.42-.59-1.17-1.07-2.24-1.43l-1.17,4.12-.54.27.11.22.8.27.27-.13-.23-1.15.21-.1.4.13.27-.13.48-.24.11.22-.08.38-.27.13-.4-.13-.27.13.27.54.53-.26.24.48.37,1.42-.48.24c-.25-.5-1.14-.37-2.68.39-.02-.04-.03-.07-.04-.11-21.52,19.74-27.93,46.26-24.99,79.36,10.96-17.01,24.25-26.11,40.23-32.15,3.47-1.31,4.99-7.79,7.92-12.75,12.45-35.1-6.3-49.99-6.3-49.99Zm-13.98,4.1l.77.22-.27.13-.72-.24.22-.11Zm-1.61-5.28l.26.53-.7.61-.22.11-.15-.86-.13-.27-.35-.16,1.28.03Zm-1.39-.25l-.16.34-.78-.22.81-.4.13.27Zm-3.62.52l-.61-.7.64-.59-.13-.27-.4-.13-.27.13-.08.38-.27.14-.26-.54.16-.35-.8.4-.13-.27.14-.4.27-.13.4.14.22-.1-.27-.54.27-.13.26.54-.13.4,1.02-.5.5,1.02-.24.72.13.27.4.14-.8.4Zm4.6,2.13l-.11-.21-1.02.5.11.21.75-.37-.51,1.52-.27.13.16-1.02c-1,.5-2.11.2-3.32-.9l-.13-.27.48-.24-.13-.27-.32-.11-.13-.27.08-.37.27-.13.41.14.37,1.42.13.27.75-.37-.13-.27-.35-.16-.37-.75.49-.24-.13-.27-.48.24-.13-.27c-.14-.29.19-.88,1-1.76l.64.62-.13.4-.4-.13-.21.77c.5-.25.87-.12,1.12.38l-.48.24c.73.22,1.23.61,1.52,1.18l1.55-.77.13.27-1.18.85Zm4.46,1.33l-.8-.27-.37-.75c.81-.09,1.27,0,1.39.25l-.21.77Zm-21.07,60.16v-.6h.3l.6.6h-.9Zm.9.84v.6h-.9l.6-.6h.3Zm-6.05-8.8v-.3l.55-.3.55.3v-.3c0-.36,0-.54-1.11-.54v.09h3.47c.76,0,.95.08,2.06,1.04v.24c-1.11,0-1.23,3.15-1.23,3.15h-3.2v-2.25l-1.11-1.14Zm5.15-5.14v.84h-.24l-.3-.84h.54Zm-1.13-2.27h.3l-.54.54h-.3l.54-.54Zm-.84.84h.84l.3.3-.54.54-.6-.54v-.3Zm-.54,1.74l.54-.6.6,1.14-1.14-.3v-.24Zm-.9.54h.9v.6h-.9v-.6Zm-.84,9.25h.3-.5v.74l1.74-.6c-.48,1.36-1.04,2.03-1.74,2.03v-2.17h.2l-.3.76-.3.07.6-.83Zm-.2,6.13v.15h.7v.45c-.7,0-.05.38-.05,1.14l-.65-.6v-.98h.2l.3.7h-.5v-.85Zm.41,5.6h2.37l-1.14.52-1.47.2-.87.26v.13h2.64l.24-.07.3.96-2.84.66c0-.76-2.54-1.08-2.54-1.08v-.47h2.52l.3-.48c.76,0,1.14,0,1.14-.36-1.71-.44-2.57-.75-2.57-1.11l1.44.34.3-.87-.84.27h.06-.96.22c.14,0,.34-1.11.61-1.84-.08-.07-.14-.35-.23-.42l.54-.7c-.11.31-.21,1.04-.3,1.29.39.4.6.56.6,1.67h-.6v-1.11h-2.21v-.81l2.16-.54c0,.76.96,1.14,1.32,1.14l-1.24.3c0,.44-.02.72,1.09.84v1.3Zm3.32-4.43v1.11h-3.32v-1.39l3.2,1.39h-4.31v-1.15l1.89-.24c-.28,0,.31-.76.19-2.27l.7.96,1.23.48h.3l-1.15-.48-2.05.18v1.41h3.32Zm-2.09-1.11h-.6l.3-.67c.96,0,1.44-.43,1.44-.43h-3.47v-1.11h4.31l.3.39c0,.6-.76,1.83-2.28,1.83Zm1.68-4.1l-.24-.26.24-1.09h.6c0,.67.18.79.54.79l-.54.55h-.6Zm3.71,9.47h-.24l-.6-.6h.83v.6Zm1.14-6.82l-2.8.84-.52.3v.24l-.28.3-.82-.84v-.3l3.05-.2h1.37v-.34Zm-1.97-5.74c0,.76-.28.54-.84.54h-.3l.3.3-.85-.24.34-.3v-.86h3.32v1.26h0v-1.26h-1.37l.24.7-.83-.14Zm.83-3.71l-1.14.3v-.84h.6l.3.3.24-.3v.54Zm13.84-29.77c-.36.17-.71-.08-1.04-.75l-.48.24-.16.35-.1-.22-.4-.14c.5-.25.63-.62.38-1.12l.27-.13c.39-.19.89.18,1.5,1.13l.13.27-.08.37Zm9.79-5.85c.93-.28,1.49-.23,1.68.17l-2.17,1.41-.13-.27-.4-.14,1.15-.91-.13-.27Zm-4.68-1.75l.11.21-.13.4-1.26.03-.13-.27.13-.4,1.29.03Zm-1.39-1.59l.27.53-.27.13-.8-.27.8-.4Zm-1.93,2.56l.75-.37-.22.78-.27.13-.27-.54Zm.47,2.3c.54-.27.72-.56.56-.88l.48-.24.24.48-.92,1.39-.37-.75Zm1.52,33.94l-.41-.33.04-.13h.52s-.16.46-.16.46Zm.57-34.31l.27-.13.08-.37c-.25-.5-.19-.84.16-1.02l.99.11c.18.36-.16.75-1.02,1.18l.11.21.8-.4.4.8-1.02.51-.77-.89Zm1.63,1.4l.27-.14.64.62-.54.27-.37-.75Zm1.47,32.59l-.45.22-.16-.06.17-.5.5.17-.05.16Zm.18-3.64l-.22-.44.17.06.22.44-.17-.06Zm-.4-28.3l-.13-.27c.53-.26.94-.13,1.2.41l.08-.37,1.18.35c-1.04.51-1.82.47-2.33-.12Zm2.37,26.13c-.42-.15-.52-.18-.3-.1l.3.1Zm-.57,6.36l-.23-.41.33.11.09.18.04-.13.22-.11.17.06-.62.31Zm1.38-31.86l.27-.13.8.27.13.27-1.2-.41Zm2.45-3.42l-.72-.24.61-.64.37.75-.27.13Zm8.03,13.72l.33.11-.1.3-.22.11.17.06-.45.21.28-.79Zm-.71,1.53l.22-.11.16.06.11.22-.04.13-.22.11-.17-.06-.11-.22.04-.13Zm-1.07,6.19l.33.11-.03.51c-.86.42-1.46.45-1.8.08.75.26,1.25.02,1.5-.7Zm-.98,7.44l-.22.11-.11-.22.39-.05-.06.17Zm.06.91l-.03.51-.13-.05-.11-.22.1-.3.16.06Zm-.14-6.78l-.11-.22.3.1-.19.12Zm-1.71,12.14l-.45-.3.17-.5.5.17-.06.16-.33-.12-.06.17.33.11-.1.3Zm1.13,4.32l-.62.3-.46-.16.06-.17c.07-.2.43-.25,1.08-.14l-.06.17Zm.69-7.57h-.55s-.27-1.18-.27-1.18l-.19-.06.1-.3.09.36.14.05.1-.3.46.16c-.08.24-.01.57.23.96l-.1.3Zm1.12-1.21l-.45.22-.63-.22c.08-.22.46-.28,1.13-.16l-.06.16Zm.27-2.39l-.47-.16.23-.11-.12-.19.17-.5.33.11-.14.84Zm-.16-8.2c-.37-.3-.52-.53-.47-.68l.06-.17.73-.08v.52s-.32.41-.32.41Zm1.59,4.62l-.22.11-.06.17-.11.85-.22.11-.13-.05.06-1.24.33.11c.08-.22-.05-.39-.38-.5l-.09-.18.05-.16.92-.2-.16.98Zm-.44-3.85l-.06.17-.3-.1.17-.5.4-.2-.1.3-.19.12.08.21Zm.47-3.39l-.05.16.11.22-.1.3c-.2-.07-.35.06-.47.39l-.16-.06.11-.33.38-.57-.5-.69-.13-.05-.21.07.21-1.15.8.79c-.15.42-.06.68.24.79l-.22.11Zm.55-4.59l-.17-.06-.11-.22-.17.5.33.11-.04.13-.33-.11-.12-.19.5-.9c.08-.22.1-.45.05-.69l.17.06c-.14.42-.06.68.25.79l-.35.58Z"/><polygon class="cls-2" points="206.08 126.21 205.94 126.61 206.74 126.88 206.35 126.07 206.08 126.21"/><path class="cls-2" d="m184.3,13.87c-11.22,8.28-15.38,19.06-13.86,32.33,1.31,11.51,9.37,15.73,22.56,19.44-18.09-16.69-20.76-33.22-8.71-51.77Zm-8.54,24.68h.18l.17.49h-.53l.18-.49Zm-.49,4.83v.31l-.52.18.18-.49h.35Zm-1.02-6.86l.49.18v.35l-.49-.18v-.35Zm-.84,2.52l.49-.18v.18l.17.18v.14l-.67-.14v-.18Zm.67,10.67l-.31.35h-.35l.35-.35h.31Zm-1.68-12.84l.67.31v.18h-.14l-.52-.18v-.31Zm.52,10.18l.49.17v.14h-.49v-.31Zm1.82,4.02c-.44,0-.67.26-.67.26h-1.6v-.12l.31-.14-.31-.18v-.68h1.43c.23,0,.32.38.32.83l.47.02v-.18c-2.21,0-.44-.68-.44-.68h.35l.09.33v-.54h0v.54l.05-.33h.52l-.52.85Zm1.68-.52l-.32.35h-.35c0-.33-.16-.49-.49-.49l.14-.52h.35v.35h.49v-.35h.18v.66Zm.66-7.03h-.49l-.17-.49.66.35v.14Zm.17-2.15h-.17l-.17-.26-.32.26h-.49s-1.42,1.3-1.42,1.49v-1.33l.53-.17c.65,0,1.33-1.19,1.33-1.52l.71-.68h-.49c0,1.11.16,1.11.49,2.21Zm.49,6.52h-.32v-.53h.32v.53Z"/><polygon points="233.94 171.48 233.98 171.62 234.49 171.66 234.37 171.19 233.94 171.48"/><polygon points="235.09 165.98 235.51 166.23 235.69 166.19 235.26 165.94 235.09 165.98"/><polygon points="236.82 169.33 236.95 169.84 237.12 169.79 237.37 169.37 237.33 169.2 236.82 169.33"/><path d="m235.65,163.41l.3-.08c-.43.11-.53.14-.3.08Z"/><polygon points="239.18 168.39 239.06 168.61 239.09 168.74 238.92 168.64 238.58 168.73 239 168.95 239.35 168.35 239.18 168.39"/><path d="m239.75,151.84c.19.74-.1,1.22-.86,1.41.49.12.98-.24,1.46-1.06l-.26-.44-.34.09Z"/><path d="m236.63,143.82l.2.09.34-.09-.04-.14-.34.09-.13-.51.22.13.17-.04-.03-.68c-.31.08-.53-.09-.64-.52l-.17.04c.17.17.28.37.34.6l.09,1.02Z"/><polygon points="237.34 145.88 237.21 146.1 237.25 146.23 237.47 146.36 237.64 146.31 237.76 146.1 237.73 145.96 237.51 145.84 237.34 145.88"/><polygon points="236.97 144.43 237.18 145.24 237.43 144.81 237.26 144.86 237.38 144.64 237.31 144.34 236.97 144.43"/><path d="m237.51,146.53l.46,1.07.13-.18.13-.03.8.3v.69s.09.34.09.34l.17-.04c-.08-.34-.03-.53.18-.59l-.08-.31-.21-.12-.04-.17.13-.21c-.32.08-.53-.09-.64-.52l-1.11-.22Z"/><path d="m238.43,150.08l.05.17c.04.16.29.26.76.31l.05-.52-.29-.43-.56.47Z"/><polygon points="239.73 153.72 239.82 153.52 239.52 153.6 239.73 153.72"/><polygon points="236.98 141.82 237.27 142.25 237.61 142.16 237.49 141.69 236.98 141.82"/><polygon points="240.22 150.31 240.35 150.82 240.66 150.74 240.61 150.57 240.43 150.43 240.52 150.23 240.45 149.92 240.22 150.31"/><path class="cls-1" d="m285.68,152.01c-9.6-8.65-20.59-16.99-26.83-27.86-14.91-25.94-35.1-43.6-64.18-51.12-6.31-1.63-12.43-4.27-18.38-7-31.69-14.55-39.65-33.81-27.53-66.04-16.7,13.95-19.92,39.13-3.95,55.83,10.53,11.01,25.31,18.17,38.74,26.14,9.55,5.67,20.77,8.73,29.81,15.02,6.24,4.35,10.02,12.23,14.9,18.53-1.33,1.2-3.63,2.99-4.95,4.19,0,0,19.19,16.09,6.32,49.6,15.88,18.52,38.45,13.56,58.72,11.75,6.28-.56,11.95-7.9,20.19-13.77-9.68-6.36-17-10.02-22.85-15.28ZM142.02,29.06l.14-.02.03.25-.38.06.21-.28Zm-.7-.15l.14-.02.04.25-.38.06.21-.29Zm-.05.4l.11-.02.06.38-.38.06-.02-.14.24-.29Zm.06,1.31l.14-.02-.21.45.14-.02.34-.33.04.27-.21.28-.41.06-.2-.36.37-.33Zm-1.42-3.13l-.42-.19.08-.43.32.48.02.14Zm-.08,8.45l-.21.28v-.11s.19-.31.19-.31l.02.14Zm-.04-12.06l-.23.32-.14.02-.04-.27.41-.06Zm-.33,11.3l.14-.02-.07.43-.14.02-.04-.27.12-.16Zm-2.11,3.93l-.38.06-.02-.11.23-.32.38-.06.02.14-.24.29Zm2.1-.42l-.27.04.02-.82c.37.08.56.18.58.31-.26.04-.37.19-.32.47Zm.38-.06l-.02-.14.14-.02c.25-.04.39.03.42.19l-.54-.03Zm.13-8.47c0,.09,0,.18,0,.26-.02-.1,0-.18,0-.26.01-.29,0-.6-.05-.94l.41.08.08.52c-.25.04-.39.15-.44.34Zm.53,1.24l.14-.02c.75.26,1.14.47,1.16.64l-.54-.06c-.2-.23-.44-.33-.72-.29l-.04-.27Zm.53,1.66l-.04-.25.44.33.04.28-.25.04-.2-.39Zm.6,2.32l-.28-.21.25-.04-.14-.12-.02-.14.6.44-.41.06Zm1.48,2.61l-.04-.27-.78.26-.14.02c-.03-.18.22-.35.74-.5l.14-.02.29.21.04.27-.25.04Zm.24-5.53l-.16-.11.23-.32.06.41-.14.02Zm19.29,29.76l-.45-.3-.19-.78.94.64-.3.44Zm4.45,4.1l.16-.25,1.19,2.83-1.35-2.58Zm3.51,3.03l-.25-.17.3-.45-.5-.34-.38.03.71-.53.58.75-.47.69Zm2.82,1.91l-.74-.5.8-.11.25.17-.3.45Zm6.42,4.71l-.25-.17,1.13-.61.25.17-1.13.6Zm3.71,1.14l-.11-.8.47-.69.45.3.08.42-.88.77Zm10.05,7.22l-.25-.17.3-.45.41-.08.2.13-.67.56Zm1.75-2.57l-.5-.34.17-.25.49.33-.17.25Zm5.2-1.6l.64-.94.14.75-.79.19Zm3.03-.41l-.83.16-.2-.13.17-.25.78-.19.25.17-.17.25Zm8.15,10.37l-.91-.25.17-.25.42-.08.49.34-.17.25Zm2.8,2.91l-.45-.3-.19-.78.94.64-.3.44Zm4.45,4.1l.17-.25,1.19,2.83-1.36-2.58Zm3.51,3.03l-.25-.17.3-.45-.5-.34-.38.03.72-.53.58.75-.47.69Zm2.82,1.92l-.75-.5.8-.11.25.17-.3.45Zm6.42,4.71l-.25-.17,1.13-.61.25.17-1.13.6Zm25.68,59.42l.13.51-.17.04-.21-.12.25-.42Zm-2.15-3.57l.17-.05.08.31-.47.12.23-.38Zm-.53,2.56l.38-.46.09.34-.23.38-.51.13-.29-.43.42-.47.17-.04-.21.6.17-.04Zm-.36-2.65l.17-.04.08.31-.48.12.23-.39Zm-.01.51l.14-.04.12.48-.48.12-.04-.17.26-.39Zm-.94,8.52l-.23.38-.04-.14.22-.41.04.17Zm-7.73-3.21l-.47.12-.29-.43.73.17.03.14Zm-.16-1.33l-.17.05-.21-.13-.22.42-.17.04-.21-.13-.14.04c.06.25-.11.52-.51.82l-.08-.31c-.14-.54.02-.87.47-.99l-.04-.17-.21-.13c.63-.16.91-.4.83-.72l.43.25-.47.12c.08.32.32.59.72.83Zm-1.03-2.27l-.13-.51.51-.13.04.17-.34.09.04.17.34-.09.08.3h-.54Zm.49-5.51l.04.17-.25.43-.64.17c-.06-.23.23-.48.85-.76Zm-.3,1.48l.08.31-.46.3-.88-.82-.19.05-.08-.3.27.26.15-.04-.08-.31.48-.12c.06.25.3.48.72.68Zm-1.24-1.42l.17-.04.26.44-.13.04-.21-.13-.08-.31Zm.49-2.04l-.48.13.13-.21-.21-.09-.13-.51.34-.09.35.78Zm-8.49-49.35l-.11-.8.47-.69.45.3.08.42-.88.77Zm3.39,56.02l.64-.34.13-.03v.51s-.18.04-.18.04l-.21-.09-.34.09.08.31-.13.03-.16-.64.18.13Zm.16,2.56l-.18-.67.34-.09.09.34-.25.42Zm.1-1.57l.59.17.17-.04-.08-.3-.34.09.25-.43.14-.04.21.12v.69s-.65.17-.65.17l-.29-.43Zm.8.98l.21.13-.34.08-.09-.34.13-.21.31-.08.04.17-.3.08.04.17Zm.23-2.48l-.55-.04-.08-.3.72.14.04.17-.14.04Zm.94,1.68l-.04-.17.43-.29.04.17.21.12.04.14-.68.03Zm.23-2.48l-.09-.34.52.04.09.34-.52-.05Zm.91-8.19l-.42-.22-.04-.17.55.04.08.31-.17.04Zm.1-.89l-.17-.1-.04-.17.66-.67.41.9-.12.21.04.17.38.77-.12.21-.14.04-.64-1.07.34-.09c-.06-.22-.25-.3-.59-.21Zm.79,5l-.13.21-.21-.12.29-.26.04.17Zm-.45,14.58l-.08-.3.51.05.04.13-.47.12Zm.54-9.25l.17-.04.29.43-.51.13.05-.52Zm.39,4.88l.34-.09.08.31-.46.3.04-.52Zm.47,6.42l.3-.08-.22.42-.34.09.25-.43Zm1.37,1.38c-.43.11-.6.33-.51.68l-.3.08-.18-.68.1-.17-.52-.05-.09-.34.48-.12c.23-.06.39.13.5.56l.44-.26-.05-.17c-.32.08-.52-.03-.59-.35l.34-.09.17.1-.04-.14.17-.04.04.14-.13.21.34-.09.12-.21-.3.94Zm1.2-.82l-.34.09c-.08-.32-.28-.43-.6-.35v-.54s.34-.09.34-.09l.09.34.47-.12-.09-.34.17-.04.17.64-.22.42Zm.53-3.25l-.13-.51.31-.08.13.51-.31.08Zm.9-4.18l-.47.12-.04-.17c-.06-.2.22-.44.82-.72l.04.17-.35.6Zm2.72,7.54l-.48.12-.03-.13.25-.43.48-.12.04.17-.26.39Zm.8-19l-.17.04-.09-.34.51-.13-.25.42Zm.32,3.9l.04-.55.47.56.04.17-.55-.18Zm1.31,2.41l.16.65c-.31.08-.47.24-.5.49,0,.11.02.22.02.32-.03-.12-.04-.23-.02-.32-.02-.37-.08-.76-.19-1.18l.52.05Zm-.43,7.7l.12-.21.17-.04-.04.55-.17.05-.09-.34Zm.57,4.19l-.34.09-.08-1.03c.47.05.72.15.76.31-.31.08-.43.29-.34.63Zm.52-9.31c.97.23,1.49.44,1.54.64h-.69c-.28-.27-.59-.35-.94-.27l-.09-.34.17-.04Zm-.05,9.19l-.05-.17.17-.04c.32-.08.5-.02.55.18l-.68.03Zm1.06-6.67l-.3-.46-.08-.31.59.35.09.34-.31.08Zm.75,2.37l-.38-.22.31-.08-.18-.14-.04-.17.81.47-.51.13Zm2.21,3.08l-.09-.34-.94.42-.17.04c-.06-.23.22-.47.86-.73l.17-.04.38.22.09.34-.31.08Zm31.44-9.09h.17l.18.49h-.53l.18-.49Zm-.49,4.83v.32l-.52.17.17-.49h.35Zm-1.02-6.86l.49.17v.35l-.49-.17v-.35Zm-.84,2.52l.49-.18v.18l.17.18v.14l-.66-.14v-.18Zm.66,10.67l-.31.35h-.35l.35-.35h.31Zm-1.68-12.84l.67.32v.17h-.14l-.53-.17v-.32Zm-.98,2.83l-.35.35v-.7h.35v.35Zm0-2.34l.14.18.7-.18h.14l-.14.49h-.17l-.18-.14h-.35v.31h-.14v-.67Zm.98,2.17h-.31v.17l.17.18h-.35v-.35l.18-.18h.31v.18Zm0-.49h-.66l-.17-.49.53.31h.17v-.31h-.35l.35-.35h.14l.18.18-.18.66Zm.53,8.01l.49.18v.14h-.49v-.31Zm1.82,4.65c-.45,0-.67.83-.67.83h1.19v-1.32l-.24-.14-.87-.18v1.63h-.25c.23,0,.61-.77.61-.33l.75-1.13v-.18l-1.01,1.63h.35l.66-1.98v-.44h0v.44l-.52,1.98h.35l.18-.92-.52.09Zm1.68-1.15l-.32.35h-.35c0-.33-.16-.49-.49-.49l.14-.52h.35v.35h.49v-.35h.18v.66Zm.66-7.03h-.49l-.17-.49.66.35v.14Zm.18,1.27h-.18l-.17.29-.31.82h-.17l-.18-1.11h-.14c0,1.11.26-2.12-.84-1.93v-.32c0-.56,1.11-.84,1.11-.84v-.18l-.31-.18c.65,0,.91,1.63.91,1.3l.29,2.14h-.49.49Zm.17,3.11v-.53h.32v.53h-.32Z"/></g></svg>